<mxfile host="Electron" modified="2024-01-19T18:09:44.602Z" agent="Mozilla/5.0 (Macintosh; Intel Mac OS X 10_15_7) AppleWebKit/537.36 (KHTML, like Gecko) draw.io/22.1.18 Chrome/120.0.6099.199 Electron/28.1.2 Safari/537.36" etag="Pal_52WUPyduAZb2YWrB" version="22.1.18" type="device" pages="8">
  <diagram name="main" id="4NC5C235ceEbJDFCXTHk">
    <mxGraphModel dx="937" dy="704" grid="1" gridSize="10" guides="1" tooltips="1" connect="1" arrows="1" fold="1" page="1" pageScale="1" pageWidth="850" pageHeight="1100" math="0" shadow="0">
      <root>
        <mxCell id="0" />
        <mxCell id="1" parent="0" />
        <mxCell id="vt2uHKQi6QLiGVlnmY2d-5" value="Game" style="rounded=1;whiteSpace=wrap;html=1;sketch=0;container=1;recursiveResize=0;verticalAlign=top;arcSize=6;fontStyle=0;autosize=0;points=[];absoluteArcSize=1;shadow=1;strokeColor=#001DBC;fillColor=#0050ef;fontColor=#ffffff;fontFamily=Helvetica;fontSize=11;" vertex="1" parent="1">
          <mxGeometry x="220" y="110" width="140" height="125" as="geometry">
            <mxRectangle x="-98" y="-1230" width="99" height="26" as="alternateBounds" />
          </mxGeometry>
        </mxCell>
        <mxCell id="vt2uHKQi6QLiGVlnmY2d-6" value="cold start" style="rounded=1;whiteSpace=wrap;html=1;sketch=0;points=[[0,0.5,0,0,0],[1,0.5,0,0,0]];arcSize=50;fontFamily=Helvetica;fontSize=11;fontColor=default;" vertex="1" parent="vt2uHKQi6QLiGVlnmY2d-5">
          <mxGeometry x="-18.75" y="40" width="66" height="25" as="geometry" />
        </mxCell>
        <mxCell id="D3qdG0gJSyTldHNnm74g-3" value="" style="rounded=1;whiteSpace=wrap;html=1;sketch=0;points=[[0,0.5,0,0,0],[1,0.5,0,0,0]];fillColor=#1ba1e2;fontColor=#ffffff;strokeColor=#006EAF;arcSize=50;fontFamily=Helvetica;fontSize=11;" vertex="1" parent="vt2uHKQi6QLiGVlnmY2d-5">
          <mxGeometry x="90" y="40" width="66" height="25" as="geometry" />
        </mxCell>
        <mxCell id="vt2uHKQi6QLiGVlnmY2d-9" value="play" style="rhombus;whiteSpace=wrap;html=1;rounded=1;fontStyle=1;glass=0;sketch=0;fontSize=12;points=[[0,0.5,0,0,0],[0.5,0,0,0,0],[0.5,1,0,0,0],[1,0.5,0,0,0]];shadow=1;fontFamily=Helvetica;fontColor=default;" vertex="1" parent="1">
          <mxGeometry x="40" y="120" width="80" height="80" as="geometry" />
        </mxCell>
        <mxCell id="vt2uHKQi6QLiGVlnmY2d-10" style="edgeStyle=orthogonalEdgeStyle;rounded=1;orthogonalLoop=1;jettySize=auto;html=1;exitX=1;exitY=0.5;exitDx=0;exitDy=0;exitPerimeter=0;entryX=0;entryY=0.5;entryDx=0;entryDy=0;entryPerimeter=0;curved=0;strokeWidth=2;" edge="1" parent="1" source="vt2uHKQi6QLiGVlnmY2d-9" target="vt2uHKQi6QLiGVlnmY2d-6">
          <mxGeometry relative="1" as="geometry" />
        </mxCell>
      </root>
    </mxGraphModel>
  </diagram>
  <diagram id="SwbNnDgOkUqeW8t3A8qw" name="Game">
    <mxGraphModel dx="937" dy="704" grid="1" gridSize="10" guides="1" tooltips="1" connect="1" arrows="1" fold="1" page="1" pageScale="1" pageWidth="850" pageHeight="1100" math="0" shadow="0">
      <root>
        <mxCell id="0" />
        <mxCell id="1" parent="0" />
        <mxCell id="yTE4_9pnOl3mThRp0SYr-1" value="cold start" style="rhombus;whiteSpace=wrap;html=1;rounded=1;fontStyle=1;glass=0;sketch=0;fontSize=12;points=[[0,0.5,0,0,0],[0.5,0,0,0,0],[0.5,1,0,0,0],[1,0.5,0,0,0]];shadow=1;fontFamily=Helvetica;fontColor=default;" vertex="1" parent="1">
          <mxGeometry x="40" y="295" width="80" height="80" as="geometry" />
        </mxCell>
        <mxCell id="yTE4_9pnOl3mThRp0SYr-2" value="" style="rhombus;whiteSpace=wrap;html=1;rounded=1;fillColor=#0050ef;fontColor=#ffffff;strokeColor=#001DBC;fontStyle=1;glass=0;sketch=0;fontSize=12;points=[[0,0.5,0,0,0],[0.5,0,0,0,0],[0.5,1,0,0,0],[1,0.5,0,0,0]];shadow=1;fontFamily=Helvetica;" vertex="1" parent="1">
          <mxGeometry x="1400" y="480" width="80" height="80" as="geometry" />
        </mxCell>
        <mxCell id="yTE4_9pnOl3mThRp0SYr-3" value="&lt;b&gt;init&lt;/b&gt;&lt;br&gt;p.ok = maxhp&lt;br&gt;p.$ = 0&lt;br&gt;p.pwr = 4&lt;br&gt;ndays - 0" style="rounded=1;whiteSpace=wrap;html=1;sketch=0;container=1;recursiveResize=0;verticalAlign=top;arcSize=6;fontStyle=0;autosize=0;points=[];absoluteArcSize=1;shadow=1;strokeColor=#d6b656;fillColor=#fff2cc;fontFamily=Helvetica;fontSize=11;" vertex="1" parent="1">
          <mxGeometry x="200" y="280" width="216" height="110" as="geometry">
            <mxRectangle x="-98" y="-1230" width="99" height="26" as="alternateBounds" />
          </mxGeometry>
        </mxCell>
        <mxCell id="yTE4_9pnOl3mThRp0SYr-4" value="" style="rounded=1;whiteSpace=wrap;html=1;sketch=0;points=[[0,0.5,0,0,0],[1,0.5,0,0,0]];arcSize=50;fontFamily=Helvetica;fontSize=11;fontColor=default;" vertex="1" parent="yTE4_9pnOl3mThRp0SYr-3">
          <mxGeometry x="-18.75" y="40" width="38.75" height="25" as="geometry" />
        </mxCell>
        <mxCell id="yTE4_9pnOl3mThRp0SYr-5" value="" style="rounded=1;whiteSpace=wrap;html=1;sketch=0;points=[[0,0.5,0,0,0],[1,0.5,0,0,0]];fillColor=#1ba1e2;fontColor=#ffffff;strokeColor=#006EAF;arcSize=50;fontFamily=Helvetica;fontSize=11;" vertex="1" parent="yTE4_9pnOl3mThRp0SYr-3">
          <mxGeometry x="180" y="40" width="36" height="25" as="geometry" />
        </mxCell>
        <mxCell id="yTE4_9pnOl3mThRp0SYr-7" value="&lt;b&gt;choose&lt;/b&gt;&lt;br&gt;&quot;adventure&quot;, &lt;br&gt;&quot;shop&quot;, &lt;br&gt;&quot;rest&quot;, &lt;br&gt;&quot;quit&quot;" style="rounded=1;whiteSpace=wrap;html=1;sketch=0;container=1;recursiveResize=0;verticalAlign=top;arcSize=6;fontStyle=0;autosize=0;points=[];absoluteArcSize=1;shadow=1;strokeColor=#d6b656;fillColor=#fff2cc;fontFamily=Helvetica;fontSize=11;" vertex="1" parent="1">
          <mxGeometry x="480" y="280" width="170" height="170" as="geometry">
            <mxRectangle x="-98" y="-1230" width="99" height="26" as="alternateBounds" />
          </mxGeometry>
        </mxCell>
        <mxCell id="yTE4_9pnOl3mThRp0SYr-8" value="" style="rounded=1;whiteSpace=wrap;html=1;sketch=0;points=[[0,0.5,0,0,0],[1,0.5,0,0,0]];arcSize=50;fontFamily=Helvetica;fontSize=11;fontColor=default;" vertex="1" parent="yTE4_9pnOl3mThRp0SYr-7">
          <mxGeometry x="-18.75" y="40" width="38.75" height="25" as="geometry" />
        </mxCell>
        <mxCell id="yTE4_9pnOl3mThRp0SYr-9" value="&quot;adventure&quot;" style="rounded=1;whiteSpace=wrap;html=1;sketch=0;points=[[0,0.5,0,0,0],[1,0.5,0,0,0]];fillColor=#1ba1e2;fontColor=#ffffff;strokeColor=#006EAF;arcSize=50;fontFamily=Helvetica;fontSize=11;" vertex="1" parent="yTE4_9pnOl3mThRp0SYr-7">
          <mxGeometry x="124" y="40" width="66" height="25" as="geometry" />
        </mxCell>
        <mxCell id="yTE4_9pnOl3mThRp0SYr-18" value="&quot;quit&quot;" style="rounded=1;whiteSpace=wrap;html=1;sketch=0;points=[[0,0.5,0,0,0],[1,0.5,0,0,0]];fillColor=#1ba1e2;fontColor=#ffffff;strokeColor=#006EAF;arcSize=50;fontFamily=Helvetica;fontSize=11;" vertex="1" parent="yTE4_9pnOl3mThRp0SYr-7">
          <mxGeometry x="124" y="130" width="66" height="25" as="geometry" />
        </mxCell>
        <mxCell id="yTE4_9pnOl3mThRp0SYr-16" value="&quot;shop&quot;" style="rounded=1;whiteSpace=wrap;html=1;sketch=0;points=[[0,0.5,0,0,0],[1,0.5,0,0,0]];fillColor=#1ba1e2;fontColor=#ffffff;strokeColor=#006EAF;arcSize=50;fontFamily=Helvetica;fontSize=11;" vertex="1" parent="yTE4_9pnOl3mThRp0SYr-7">
          <mxGeometry x="124" y="70" width="66" height="25" as="geometry" />
        </mxCell>
        <mxCell id="yTE4_9pnOl3mThRp0SYr-17" value="&quot;rest&quot;" style="rounded=1;whiteSpace=wrap;html=1;sketch=0;points=[[0,0.5,0,0,0],[1,0.5,0,0,0]];fillColor=#1ba1e2;fontColor=#ffffff;strokeColor=#006EAF;arcSize=50;fontFamily=Helvetica;fontSize=11;" vertex="1" parent="yTE4_9pnOl3mThRp0SYr-7">
          <mxGeometry x="124" y="100" width="66" height="25" as="geometry" />
        </mxCell>
        <mxCell id="yTE4_9pnOl3mThRp0SYr-15" style="edgeStyle=orthogonalEdgeStyle;rounded=0;orthogonalLoop=1;jettySize=auto;html=1;exitX=1;exitY=0.5;exitDx=0;exitDy=0;exitPerimeter=0;entryX=0;entryY=0.5;entryDx=0;entryDy=0;entryPerimeter=0;" edge="1" parent="1" source="yTE4_9pnOl3mThRp0SYr-5" target="yTE4_9pnOl3mThRp0SYr-8">
          <mxGeometry relative="1" as="geometry" />
        </mxCell>
        <mxCell id="yTE4_9pnOl3mThRp0SYr-19" style="edgeStyle=orthogonalEdgeStyle;rounded=1;orthogonalLoop=1;jettySize=auto;html=1;entryX=0;entryY=0.5;entryDx=0;entryDy=0;entryPerimeter=0;strokeWidth=2;curved=0;" edge="1" parent="1" source="yTE4_9pnOl3mThRp0SYr-1" target="yTE4_9pnOl3mThRp0SYr-4">
          <mxGeometry relative="1" as="geometry" />
        </mxCell>
        <mxCell id="yTE4_9pnOl3mThRp0SYr-21" value="warm start" style="rhombus;whiteSpace=wrap;html=1;rounded=1;fontStyle=1;glass=0;sketch=0;fontSize=12;points=[[0,0.5,0,0,0],[0.5,0,0,0,0],[0.5,1,0,0,0],[1,0.5,0,0,0]];shadow=1;fontFamily=Helvetica;fontColor=default;" vertex="1" parent="1">
          <mxGeometry x="40" y="440" width="80" height="80" as="geometry" />
        </mxCell>
        <mxCell id="yTE4_9pnOl3mThRp0SYr-22" style="edgeStyle=orthogonalEdgeStyle;shape=connector;curved=0;rounded=1;orthogonalLoop=1;jettySize=auto;html=1;entryX=0;entryY=0.5;entryDx=0;entryDy=0;entryPerimeter=0;labelBackgroundColor=default;strokeColor=default;strokeWidth=2;align=center;verticalAlign=middle;fontFamily=Helvetica;fontSize=11;fontColor=default;endArrow=classic;" edge="1" parent="1" source="yTE4_9pnOl3mThRp0SYr-21" target="yTE4_9pnOl3mThRp0SYr-8">
          <mxGeometry relative="1" as="geometry">
            <Array as="points">
              <mxPoint x="440" y="480" />
              <mxPoint x="440" y="333" />
            </Array>
          </mxGeometry>
        </mxCell>
        <mxCell id="yTE4_9pnOl3mThRp0SYr-23" value="&lt;b&gt;Shop&lt;/b&gt;" style="rounded=1;whiteSpace=wrap;html=1;sketch=0;container=1;recursiveResize=0;verticalAlign=top;arcSize=6;fontStyle=0;autosize=0;points=[];absoluteArcSize=1;shadow=1;strokeColor=#001DBC;fillColor=#0050ef;fontFamily=Helvetica;fontSize=11;fontColor=#ffffff;" vertex="1" parent="1">
          <mxGeometry x="720" y="330" width="80" height="60" as="geometry">
            <mxRectangle x="-98" y="-1230" width="99" height="26" as="alternateBounds" />
          </mxGeometry>
        </mxCell>
        <mxCell id="yTE4_9pnOl3mThRp0SYr-24" value="" style="rounded=1;whiteSpace=wrap;html=1;sketch=0;points=[[0,0.5,0,0,0],[1,0.5,0,0,0]];arcSize=50;fontFamily=Helvetica;fontSize=11;fontColor=default;" vertex="1" parent="yTE4_9pnOl3mThRp0SYr-23">
          <mxGeometry x="-10" y="20" width="40" height="25" as="geometry" />
        </mxCell>
        <mxCell id="yTE4_9pnOl3mThRp0SYr-25" value="" style="rounded=1;whiteSpace=wrap;html=1;sketch=0;points=[[0,0.5,0,0,0],[1,0.5,0,0,0]];fillColor=#1ba1e2;fontColor=#ffffff;strokeColor=#006EAF;arcSize=50;fontFamily=Helvetica;fontSize=11;" vertex="1" parent="yTE4_9pnOl3mThRp0SYr-23">
          <mxGeometry x="60" y="20" width="36" height="25" as="geometry" />
        </mxCell>
        <mxCell id="yTE4_9pnOl3mThRp0SYr-26" value="&lt;b&gt;Rest&lt;/b&gt;" style="rounded=1;whiteSpace=wrap;html=1;sketch=0;container=1;recursiveResize=0;verticalAlign=top;arcSize=6;fontStyle=0;autosize=0;points=[];absoluteArcSize=1;shadow=1;strokeColor=#001DBC;fillColor=#0050ef;fontFamily=Helvetica;fontSize=11;fontColor=#ffffff;" vertex="1" parent="1">
          <mxGeometry x="870" y="390" width="80" height="60" as="geometry">
            <mxRectangle x="-98" y="-1230" width="99" height="26" as="alternateBounds" />
          </mxGeometry>
        </mxCell>
        <mxCell id="yTE4_9pnOl3mThRp0SYr-27" value="" style="rounded=1;whiteSpace=wrap;html=1;sketch=0;points=[[0,0.5,0,0,0],[1,0.5,0,0,0]];arcSize=50;fontFamily=Helvetica;fontSize=11;fontColor=default;" vertex="1" parent="yTE4_9pnOl3mThRp0SYr-26">
          <mxGeometry x="-10" y="20" width="40" height="25" as="geometry" />
        </mxCell>
        <mxCell id="yTE4_9pnOl3mThRp0SYr-28" value="" style="rounded=1;whiteSpace=wrap;html=1;sketch=0;points=[[0,0.5,0,0,0],[1,0.5,0,0,0]];fillColor=#1ba1e2;fontColor=#ffffff;strokeColor=#006EAF;arcSize=50;fontFamily=Helvetica;fontSize=11;" vertex="1" parent="yTE4_9pnOl3mThRp0SYr-26">
          <mxGeometry x="60" y="20" width="36" height="25" as="geometry" />
        </mxCell>
        <mxCell id="yTE4_9pnOl3mThRp0SYr-31" style="edgeStyle=orthogonalEdgeStyle;shape=connector;curved=0;rounded=1;orthogonalLoop=1;jettySize=auto;html=1;exitX=1;exitY=0.5;exitDx=0;exitDy=0;exitPerimeter=0;entryX=0;entryY=0.5;entryDx=0;entryDy=0;entryPerimeter=0;labelBackgroundColor=default;strokeColor=default;strokeWidth=2;align=center;verticalAlign=middle;fontFamily=Helvetica;fontSize=11;fontColor=default;endArrow=classic;" edge="1" parent="1" source="yTE4_9pnOl3mThRp0SYr-16" target="yTE4_9pnOl3mThRp0SYr-24">
          <mxGeometry relative="1" as="geometry" />
        </mxCell>
        <mxCell id="yTE4_9pnOl3mThRp0SYr-33" value="&lt;b&gt;Adventure&lt;/b&gt;" style="rounded=1;whiteSpace=wrap;html=1;sketch=0;container=1;recursiveResize=0;verticalAlign=top;arcSize=6;fontStyle=0;autosize=0;points=[];absoluteArcSize=1;shadow=1;strokeColor=#001DBC;fillColor=#0050ef;fontFamily=Helvetica;fontSize=11;fontColor=#ffffff;" vertex="1" parent="1">
          <mxGeometry x="860" y="220" width="120" height="120" as="geometry">
            <mxRectangle x="-98" y="-1230" width="99" height="26" as="alternateBounds" />
          </mxGeometry>
        </mxCell>
        <mxCell id="yTE4_9pnOl3mThRp0SYr-34" value="" style="rounded=1;whiteSpace=wrap;html=1;sketch=0;points=[[0,0.5,0,0,0],[1,0.5,0,0,0]];arcSize=50;fontFamily=Helvetica;fontSize=11;fontColor=default;" vertex="1" parent="yTE4_9pnOl3mThRp0SYr-33">
          <mxGeometry x="-10" y="20" width="40" height="25" as="geometry" />
        </mxCell>
        <mxCell id="yTE4_9pnOl3mThRp0SYr-35" value="" style="rounded=1;whiteSpace=wrap;html=1;sketch=0;points=[[0,0.5,0,0,0],[1,0.5,0,0,0]];fillColor=#1ba1e2;fontColor=#ffffff;strokeColor=#006EAF;arcSize=50;fontFamily=Helvetica;fontSize=11;" vertex="1" parent="yTE4_9pnOl3mThRp0SYr-33">
          <mxGeometry x="100" y="20" width="36" height="25" as="geometry" />
        </mxCell>
        <mxCell id="0oeTGtkpo39VuJ5KU4qs-1" value="win" style="rounded=1;whiteSpace=wrap;html=1;sketch=0;points=[[0,0.5,0,0,0],[1,0.5,0,0,0]];fillColor=#1ba1e2;fontColor=#ffffff;strokeColor=#006EAF;arcSize=50;fontFamily=Helvetica;fontSize=11;" vertex="1" parent="yTE4_9pnOl3mThRp0SYr-33">
          <mxGeometry x="70" y="50" width="66" height="25" as="geometry" />
        </mxCell>
        <mxCell id="0oeTGtkpo39VuJ5KU4qs-2" value="die" style="rounded=1;whiteSpace=wrap;html=1;sketch=0;points=[[0,0.5,0,0,0],[1,0.5,0,0,0]];fillColor=#1ba1e2;fontColor=#ffffff;strokeColor=#006EAF;arcSize=50;fontFamily=Helvetica;fontSize=11;" vertex="1" parent="yTE4_9pnOl3mThRp0SYr-33">
          <mxGeometry x="70" y="85" width="66" height="25" as="geometry" />
        </mxCell>
        <mxCell id="yTE4_9pnOl3mThRp0SYr-36" style="edgeStyle=orthogonalEdgeStyle;shape=connector;curved=0;rounded=1;orthogonalLoop=1;jettySize=auto;html=1;entryX=0;entryY=0.5;entryDx=0;entryDy=0;entryPerimeter=0;labelBackgroundColor=default;strokeColor=default;strokeWidth=2;align=center;verticalAlign=middle;fontFamily=Helvetica;fontSize=11;fontColor=default;endArrow=classic;exitX=1;exitY=0.5;exitDx=0;exitDy=0;exitPerimeter=0;" edge="1" parent="1" source="yTE4_9pnOl3mThRp0SYr-9" target="yTE4_9pnOl3mThRp0SYr-34">
          <mxGeometry relative="1" as="geometry">
            <Array as="points">
              <mxPoint x="700" y="333" />
              <mxPoint x="700" y="253" />
            </Array>
          </mxGeometry>
        </mxCell>
        <mxCell id="yTE4_9pnOl3mThRp0SYr-37" style="edgeStyle=orthogonalEdgeStyle;shape=connector;curved=0;rounded=1;orthogonalLoop=1;jettySize=auto;html=1;exitX=1;exitY=0.5;exitDx=0;exitDy=0;exitPerimeter=0;entryX=0;entryY=0.5;entryDx=0;entryDy=0;entryPerimeter=0;labelBackgroundColor=default;strokeColor=default;strokeWidth=2;align=center;verticalAlign=middle;fontFamily=Helvetica;fontSize=11;fontColor=default;endArrow=classic;" edge="1" parent="1" source="yTE4_9pnOl3mThRp0SYr-17" target="yTE4_9pnOl3mThRp0SYr-27">
          <mxGeometry relative="1" as="geometry">
            <Array as="points">
              <mxPoint x="700" y="393" />
              <mxPoint x="700" y="423" />
            </Array>
          </mxGeometry>
        </mxCell>
        <mxCell id="yTE4_9pnOl3mThRp0SYr-38" style="edgeStyle=orthogonalEdgeStyle;shape=connector;curved=0;rounded=1;orthogonalLoop=1;jettySize=auto;html=1;exitX=1;exitY=0.5;exitDx=0;exitDy=0;exitPerimeter=0;entryX=0;entryY=0.5;entryDx=0;entryDy=0;entryPerimeter=0;labelBackgroundColor=default;strokeColor=default;strokeWidth=2;align=center;verticalAlign=middle;fontFamily=Helvetica;fontSize=11;fontColor=default;endArrow=classic;" edge="1" parent="1" source="yTE4_9pnOl3mThRp0SYr-35" target="yTE4_9pnOl3mThRp0SYr-8">
          <mxGeometry relative="1" as="geometry">
            <Array as="points">
              <mxPoint x="1020" y="253" />
              <mxPoint x="1020" y="200" />
              <mxPoint x="441" y="200" />
              <mxPoint x="441" y="333" />
            </Array>
          </mxGeometry>
        </mxCell>
        <mxCell id="yTE4_9pnOl3mThRp0SYr-39" style="edgeStyle=orthogonalEdgeStyle;shape=connector;curved=0;rounded=1;orthogonalLoop=1;jettySize=auto;html=1;entryX=0;entryY=0.5;entryDx=0;entryDy=0;entryPerimeter=0;labelBackgroundColor=default;strokeColor=default;strokeWidth=2;align=center;verticalAlign=middle;fontFamily=Helvetica;fontSize=11;fontColor=default;endArrow=classic;exitX=1;exitY=0.5;exitDx=0;exitDy=0;exitPerimeter=0;" edge="1" parent="1" source="yTE4_9pnOl3mThRp0SYr-25" target="yTE4_9pnOl3mThRp0SYr-8">
          <mxGeometry relative="1" as="geometry">
            <Array as="points">
              <mxPoint x="1100" y="363" />
              <mxPoint x="1100" y="200" />
              <mxPoint x="441" y="200" />
              <mxPoint x="441" y="333" />
            </Array>
          </mxGeometry>
        </mxCell>
        <mxCell id="yTE4_9pnOl3mThRp0SYr-40" style="edgeStyle=orthogonalEdgeStyle;shape=connector;curved=0;rounded=1;orthogonalLoop=1;jettySize=auto;html=1;entryX=0;entryY=0.5;entryDx=0;entryDy=0;entryPerimeter=0;labelBackgroundColor=default;strokeColor=default;strokeWidth=2;align=center;verticalAlign=middle;fontFamily=Helvetica;fontSize=11;fontColor=default;endArrow=classic;exitX=1;exitY=0.5;exitDx=0;exitDy=0;exitPerimeter=0;" edge="1" parent="1" source="yTE4_9pnOl3mThRp0SYr-28" target="yTE4_9pnOl3mThRp0SYr-8">
          <mxGeometry relative="1" as="geometry">
            <Array as="points">
              <mxPoint x="966" y="423" />
              <mxPoint x="1100" y="423" />
              <mxPoint x="1100" y="200" />
              <mxPoint x="441" y="200" />
              <mxPoint x="441" y="333" />
            </Array>
          </mxGeometry>
        </mxCell>
        <mxCell id="yTE4_9pnOl3mThRp0SYr-41" style="edgeStyle=orthogonalEdgeStyle;shape=connector;curved=0;rounded=1;orthogonalLoop=1;jettySize=auto;html=1;exitX=1;exitY=0.5;exitDx=0;exitDy=0;exitPerimeter=0;entryX=0;entryY=0.5;entryDx=0;entryDy=0;entryPerimeter=0;labelBackgroundColor=default;strokeColor=default;strokeWidth=2;align=center;verticalAlign=middle;fontFamily=Helvetica;fontSize=11;fontColor=default;endArrow=classic;" edge="1" parent="1" source="yTE4_9pnOl3mThRp0SYr-18" target="yTE4_9pnOl3mThRp0SYr-2">
          <mxGeometry relative="1" as="geometry">
            <Array as="points">
              <mxPoint x="690" y="423" />
              <mxPoint x="690" y="520" />
            </Array>
          </mxGeometry>
        </mxCell>
        <mxCell id="1PyCM2wjcVFSBwmhH-rC-1" value="&lt;b&gt;choose&lt;/b&gt;&lt;br&gt;&quot;again?&quot;, &lt;br&gt;&quot;quit&quot;" style="rounded=1;whiteSpace=wrap;html=1;sketch=0;container=1;recursiveResize=0;verticalAlign=top;arcSize=6;fontStyle=0;autosize=0;points=[];absoluteArcSize=1;shadow=1;strokeColor=#d6b656;fillColor=#fff2cc;fontFamily=Helvetica;fontSize=11;" vertex="1" parent="1">
          <mxGeometry x="1140" y="240" width="170" height="110" as="geometry">
            <mxRectangle x="-98" y="-1230" width="99" height="26" as="alternateBounds" />
          </mxGeometry>
        </mxCell>
        <mxCell id="1PyCM2wjcVFSBwmhH-rC-2" value="" style="rounded=1;whiteSpace=wrap;html=1;sketch=0;points=[[0,0.5,0,0,0],[1,0.5,0,0,0]];arcSize=50;fontFamily=Helvetica;fontSize=11;fontColor=default;" vertex="1" parent="1PyCM2wjcVFSBwmhH-rC-1">
          <mxGeometry x="-18.75" y="40" width="38.75" height="25" as="geometry" />
        </mxCell>
        <mxCell id="1PyCM2wjcVFSBwmhH-rC-3" value="&quot;again?&quot;" style="rounded=1;whiteSpace=wrap;html=1;sketch=0;points=[[0,0.5,0,0,0],[1,0.5,0,0,0]];fillColor=#1ba1e2;fontColor=#ffffff;strokeColor=#006EAF;arcSize=50;fontFamily=Helvetica;fontSize=11;" vertex="1" parent="1PyCM2wjcVFSBwmhH-rC-1">
          <mxGeometry x="124" y="40" width="66" height="25" as="geometry" />
        </mxCell>
        <mxCell id="1PyCM2wjcVFSBwmhH-rC-5" value="&quot;quit&quot;" style="rounded=1;whiteSpace=wrap;html=1;sketch=0;points=[[0,0.5,0,0,0],[1,0.5,0,0,0]];fillColor=#1ba1e2;fontColor=#ffffff;strokeColor=#006EAF;arcSize=50;fontFamily=Helvetica;fontSize=11;" vertex="1" parent="1PyCM2wjcVFSBwmhH-rC-1">
          <mxGeometry x="124" y="70" width="66" height="25" as="geometry" />
        </mxCell>
        <mxCell id="1PyCM2wjcVFSBwmhH-rC-7" style="edgeStyle=orthogonalEdgeStyle;shape=connector;curved=0;rounded=1;orthogonalLoop=1;jettySize=auto;html=1;exitX=1;exitY=0.5;exitDx=0;exitDy=0;exitPerimeter=0;entryX=0;entryY=0.5;entryDx=0;entryDy=0;entryPerimeter=0;labelBackgroundColor=default;strokeColor=default;strokeWidth=2;align=center;verticalAlign=middle;fontFamily=Helvetica;fontSize=11;fontColor=default;endArrow=classic;" edge="1" parent="1" source="0oeTGtkpo39VuJ5KU4qs-1" target="1PyCM2wjcVFSBwmhH-rC-2">
          <mxGeometry relative="1" as="geometry" />
        </mxCell>
        <mxCell id="1PyCM2wjcVFSBwmhH-rC-8" style="edgeStyle=orthogonalEdgeStyle;shape=connector;curved=0;rounded=1;orthogonalLoop=1;jettySize=auto;html=1;exitX=1;exitY=0.5;exitDx=0;exitDy=0;exitPerimeter=0;entryX=0;entryY=0.5;entryDx=0;entryDy=0;entryPerimeter=0;labelBackgroundColor=default;strokeColor=default;strokeWidth=2;align=center;verticalAlign=middle;fontFamily=Helvetica;fontSize=11;fontColor=default;endArrow=classic;" edge="1" parent="1" source="0oeTGtkpo39VuJ5KU4qs-2" target="1PyCM2wjcVFSBwmhH-rC-2">
          <mxGeometry relative="1" as="geometry" />
        </mxCell>
        <mxCell id="1PyCM2wjcVFSBwmhH-rC-9" style="edgeStyle=orthogonalEdgeStyle;shape=connector;curved=0;rounded=1;orthogonalLoop=1;jettySize=auto;html=1;exitX=1;exitY=0.5;exitDx=0;exitDy=0;exitPerimeter=0;labelBackgroundColor=default;strokeColor=default;strokeWidth=2;align=center;verticalAlign=middle;fontFamily=Helvetica;fontSize=11;fontColor=default;endArrow=classic;entryX=0;entryY=0.5;entryDx=0;entryDy=0;entryPerimeter=0;" edge="1" parent="1" source="1PyCM2wjcVFSBwmhH-rC-5" target="yTE4_9pnOl3mThRp0SYr-2">
          <mxGeometry relative="1" as="geometry" />
        </mxCell>
        <mxCell id="1PyCM2wjcVFSBwmhH-rC-10" style="edgeStyle=orthogonalEdgeStyle;shape=connector;curved=0;rounded=1;orthogonalLoop=1;jettySize=auto;html=1;exitX=1;exitY=0.5;exitDx=0;exitDy=0;exitPerimeter=0;entryX=0;entryY=0.5;entryDx=0;entryDy=0;entryPerimeter=0;labelBackgroundColor=default;strokeColor=default;strokeWidth=2;align=center;verticalAlign=middle;fontFamily=Helvetica;fontSize=11;fontColor=default;endArrow=classic;" edge="1" parent="1" source="1PyCM2wjcVFSBwmhH-rC-3" target="yTE4_9pnOl3mThRp0SYr-4">
          <mxGeometry relative="1" as="geometry">
            <Array as="points">
              <mxPoint x="1350" y="293" />
              <mxPoint x="1350" y="160" />
              <mxPoint x="150" y="160" />
              <mxPoint x="150" y="333" />
            </Array>
          </mxGeometry>
        </mxCell>
      </root>
    </mxGraphModel>
  </diagram>
  <diagram id="BwRgrKvQ6a9G1BlAH7uV" name="Rest">
    <mxGraphModel dx="937" dy="704" grid="1" gridSize="10" guides="1" tooltips="1" connect="1" arrows="1" fold="1" page="1" pageScale="1" pageWidth="850" pageHeight="1100" math="0" shadow="0">
      <root>
        <mxCell id="0" />
        <mxCell id="1" parent="0" />
        <mxCell id="Is2-R2kpy-hobnmmWNnx-1" value="p.0k := max_recharge&lt;br&gt;ndays :+= 1" style="rounded=1;whiteSpace=wrap;html=1;sketch=0;container=1;recursiveResize=0;verticalAlign=top;arcSize=6;fontStyle=0;autosize=0;points=[];absoluteArcSize=1;shadow=1;strokeColor=#d6b656;fillColor=#fff2cc;fontFamily=Helvetica;fontSize=11;" vertex="1" parent="1">
          <mxGeometry x="200" y="280" width="216" height="110" as="geometry">
            <mxRectangle x="-98" y="-1230" width="99" height="26" as="alternateBounds" />
          </mxGeometry>
        </mxCell>
        <mxCell id="Is2-R2kpy-hobnmmWNnx-2" value="" style="rounded=1;whiteSpace=wrap;html=1;sketch=0;points=[[0,0.5,0,0,0],[1,0.5,0,0,0]];arcSize=50;fontFamily=Helvetica;fontSize=11;fontColor=default;" vertex="1" parent="Is2-R2kpy-hobnmmWNnx-1">
          <mxGeometry x="-18.75" y="40" width="38.75" height="25" as="geometry" />
        </mxCell>
        <mxCell id="Is2-R2kpy-hobnmmWNnx-3" value="" style="rounded=1;whiteSpace=wrap;html=1;sketch=0;points=[[0,0.5,0,0,0],[1,0.5,0,0,0]];fillColor=#1ba1e2;fontColor=#ffffff;strokeColor=#006EAF;arcSize=50;fontFamily=Helvetica;fontSize=11;" vertex="1" parent="Is2-R2kpy-hobnmmWNnx-1">
          <mxGeometry x="180" y="40" width="36" height="25" as="geometry" />
        </mxCell>
        <mxCell id="Is2-R2kpy-hobnmmWNnx-4" value="" style="rhombus;whiteSpace=wrap;html=1;rounded=1;fontStyle=1;glass=0;sketch=0;fontSize=12;points=[[0,0.5,0,0,0],[0.5,0,0,0,0],[0.5,1,0,0,0],[1,0.5,0,0,0]];shadow=1;fontFamily=Helvetica;fontColor=default;" vertex="1" parent="1">
          <mxGeometry x="40" y="295" width="80" height="80" as="geometry" />
        </mxCell>
        <mxCell id="Is2-R2kpy-hobnmmWNnx-5" value="" style="rhombus;whiteSpace=wrap;html=1;rounded=1;fillColor=#0050ef;fontColor=#ffffff;strokeColor=#001DBC;fontStyle=1;glass=0;sketch=0;fontSize=12;points=[[0,0.5,0,0,0],[0.5,0,0,0,0],[0.5,1,0,0,0],[1,0.5,0,0,0]];shadow=1;fontFamily=Helvetica;" vertex="1" parent="1">
          <mxGeometry x="480" y="295" width="80" height="80" as="geometry" />
        </mxCell>
        <mxCell id="e8v1G6DeqWqRZ4kJp3xG-1" style="edgeStyle=orthogonalEdgeStyle;shape=connector;curved=0;rounded=1;orthogonalLoop=1;jettySize=auto;html=1;exitX=1;exitY=0.5;exitDx=0;exitDy=0;exitPerimeter=0;entryX=0;entryY=0.5;entryDx=0;entryDy=0;entryPerimeter=0;labelBackgroundColor=default;strokeColor=default;strokeWidth=2;align=center;verticalAlign=middle;fontFamily=Helvetica;fontSize=11;fontColor=default;endArrow=classic;" edge="1" parent="1" source="Is2-R2kpy-hobnmmWNnx-4" target="Is2-R2kpy-hobnmmWNnx-2">
          <mxGeometry relative="1" as="geometry" />
        </mxCell>
        <mxCell id="e8v1G6DeqWqRZ4kJp3xG-2" style="edgeStyle=orthogonalEdgeStyle;shape=connector;curved=0;rounded=1;orthogonalLoop=1;jettySize=auto;html=1;exitX=1;exitY=0.5;exitDx=0;exitDy=0;exitPerimeter=0;labelBackgroundColor=default;strokeColor=default;strokeWidth=2;align=center;verticalAlign=middle;fontFamily=Helvetica;fontSize=11;fontColor=default;endArrow=classic;" edge="1" parent="1" source="Is2-R2kpy-hobnmmWNnx-3" target="Is2-R2kpy-hobnmmWNnx-5">
          <mxGeometry relative="1" as="geometry" />
        </mxCell>
      </root>
    </mxGraphModel>
  </diagram>
  <diagram name="Shop" id="EPtqlMi-IrHuV1xhT0nY">
    <mxGraphModel dx="1787" dy="704" grid="1" gridSize="10" guides="1" tooltips="1" connect="1" arrows="1" fold="1" page="1" pageScale="1" pageWidth="850" pageHeight="1100" math="0" shadow="0">
      <root>
        <mxCell id="Qu2Mb2IjLPH-KH6Ql788-0" />
        <mxCell id="Qu2Mb2IjLPH-KH6Ql788-1" parent="Qu2Mb2IjLPH-KH6Ql788-0" />
        <mxCell id="Qu2Mb2IjLPH-KH6Ql788-2" value="p.pwr :+= weapon.pwr&lt;br&gt;p.$ :-= weapon.cost" style="rounded=1;whiteSpace=wrap;html=1;sketch=0;container=1;recursiveResize=0;verticalAlign=top;arcSize=6;fontStyle=0;autosize=0;points=[];absoluteArcSize=1;shadow=1;strokeColor=#d6b656;fillColor=#fff2cc;fontFamily=Helvetica;fontSize=11;" vertex="1" parent="Qu2Mb2IjLPH-KH6Ql788-1">
          <mxGeometry x="679" y="470" width="201" height="110" as="geometry">
            <mxRectangle x="-98" y="-1230" width="99" height="26" as="alternateBounds" />
          </mxGeometry>
        </mxCell>
        <mxCell id="Qu2Mb2IjLPH-KH6Ql788-3" value="" style="rounded=1;whiteSpace=wrap;html=1;sketch=0;points=[[0,0.5,0,0,0],[1,0.5,0,0,0]];arcSize=50;fontFamily=Helvetica;fontSize=11;fontColor=default;" vertex="1" parent="Qu2Mb2IjLPH-KH6Ql788-2">
          <mxGeometry x="-18.75" y="40" width="38.75" height="25" as="geometry" />
        </mxCell>
        <mxCell id="Qu2Mb2IjLPH-KH6Ql788-4" value="" style="rounded=1;whiteSpace=wrap;html=1;sketch=0;points=[[0,0.5,0,0,0],[1,0.5,0,0,0]];fillColor=#1ba1e2;fontColor=#ffffff;strokeColor=#006EAF;arcSize=50;fontFamily=Helvetica;fontSize=11;" vertex="1" parent="Qu2Mb2IjLPH-KH6Ql788-2">
          <mxGeometry x="180" y="40" width="36" height="25" as="geometry" />
        </mxCell>
        <mxCell id="Qu2Mb2IjLPH-KH6Ql788-5" value="" style="rhombus;whiteSpace=wrap;html=1;rounded=1;fontStyle=1;glass=0;sketch=0;fontSize=12;points=[[0,0.5,0,0,0],[0.5,0,0,0,0],[0.5,1,0,0,0],[1,0.5,0,0,0]];shadow=1;fontFamily=Helvetica;fontColor=default;" vertex="1" parent="Qu2Mb2IjLPH-KH6Ql788-1">
          <mxGeometry x="-50" y="560" width="80" height="80" as="geometry" />
        </mxCell>
        <mxCell id="Qu2Mb2IjLPH-KH6Ql788-6" value="" style="rhombus;whiteSpace=wrap;html=1;rounded=1;fillColor=#0050ef;fontColor=#ffffff;strokeColor=#001DBC;fontStyle=1;glass=0;sketch=0;fontSize=12;points=[[0,0.5,0,0,0],[0.5,0,0,0,0],[0.5,1,0,0,0],[1,0.5,0,0,0]];shadow=1;fontFamily=Helvetica;" vertex="1" parent="Qu2Mb2IjLPH-KH6Ql788-1">
          <mxGeometry x="919" y="560" width="80" height="80" as="geometry" />
        </mxCell>
        <mxCell id="rxpXkqshc4Ru8dIJ01jS-0" value="&lt;b&gt;choose&lt;/b&gt;&lt;br&gt;[&quot;buy?&quot;,&quot;buy&quot;],&lt;br&gt;&quot;leave&quot;," style="rounded=1;whiteSpace=wrap;html=1;sketch=0;container=1;recursiveResize=0;verticalAlign=top;arcSize=6;fontStyle=0;autosize=0;points=[];absoluteArcSize=1;shadow=1;strokeColor=#d6b656;fillColor=#fff2cc;fontFamily=Helvetica;fontSize=11;" vertex="1" parent="Qu2Mb2IjLPH-KH6Ql788-1">
          <mxGeometry x="419" y="470" width="180" height="170" as="geometry">
            <mxRectangle x="-98" y="-1230" width="99" height="26" as="alternateBounds" />
          </mxGeometry>
        </mxCell>
        <mxCell id="rxpXkqshc4Ru8dIJ01jS-1" value="" style="rounded=1;whiteSpace=wrap;html=1;sketch=0;points=[[0,0.5,0,0,0],[1,0.5,0,0,0]];arcSize=50;fontFamily=Helvetica;fontSize=11;fontColor=default;" vertex="1" parent="rxpXkqshc4Ru8dIJ01jS-0">
          <mxGeometry x="-18.75" y="40" width="38.75" height="25" as="geometry" />
        </mxCell>
        <mxCell id="rxpXkqshc4Ru8dIJ01jS-2" value="&quot;buy&quot;" style="rounded=1;whiteSpace=wrap;html=1;sketch=0;points=[[0,0.5,0,0,0],[1,0.5,0,0,0]];fillColor=#1ba1e2;fontColor=#ffffff;strokeColor=#006EAF;arcSize=50;fontFamily=Helvetica;fontSize=11;" vertex="1" parent="rxpXkqshc4Ru8dIJ01jS-0">
          <mxGeometry x="124" y="40" width="66" height="25" as="geometry" />
        </mxCell>
        <mxCell id="rxpXkqshc4Ru8dIJ01jS-3" value="&quot;leave&quot;" style="rounded=1;whiteSpace=wrap;html=1;sketch=0;points=[[0,0.5,0,0,0],[1,0.5,0,0,0]];fillColor=#1ba1e2;fontColor=#ffffff;strokeColor=#006EAF;arcSize=50;fontFamily=Helvetica;fontSize=11;" vertex="1" parent="rxpXkqshc4Ru8dIJ01jS-0">
          <mxGeometry x="124" y="120" width="66" height="25" as="geometry" />
        </mxCell>
        <mxCell id="c5zB3svai8LKGj00NOZ7-0" value="&quot;buy?&quot;" style="rounded=1;whiteSpace=wrap;html=1;sketch=0;points=[[0,0.5,0,0,0],[1,0.5,0,0,0]];arcSize=50;fontFamily=Helvetica;fontSize=11;fontColor=default;" vertex="1" parent="rxpXkqshc4Ru8dIJ01jS-0">
          <mxGeometry x="-18.75" y="120" width="66" height="25" as="geometry" />
        </mxCell>
        <mxCell id="c5zB3svai8LKGj00NOZ7-1" style="edgeStyle=orthogonalEdgeStyle;shape=connector;curved=0;rounded=1;orthogonalLoop=1;jettySize=auto;html=1;exitX=1;exitY=0.5;exitDx=0;exitDy=0;exitPerimeter=0;entryX=0;entryY=0.5;entryDx=0;entryDy=0;entryPerimeter=0;labelBackgroundColor=default;strokeColor=default;strokeWidth=2;align=center;verticalAlign=middle;fontFamily=Helvetica;fontSize=11;fontColor=default;endArrow=classic;" edge="1" parent="Qu2Mb2IjLPH-KH6Ql788-1" source="rxpXkqshc4Ru8dIJ01jS-2" target="Qu2Mb2IjLPH-KH6Ql788-3">
          <mxGeometry relative="1" as="geometry" />
        </mxCell>
        <mxCell id="c5zB3svai8LKGj00NOZ7-2" style="edgeStyle=orthogonalEdgeStyle;shape=connector;curved=0;rounded=1;orthogonalLoop=1;jettySize=auto;html=1;exitX=1;exitY=0.5;exitDx=0;exitDy=0;exitPerimeter=0;entryX=0;entryY=0.5;entryDx=0;entryDy=0;entryPerimeter=0;labelBackgroundColor=default;strokeColor=default;strokeWidth=2;align=center;verticalAlign=middle;fontFamily=Helvetica;fontSize=11;fontColor=default;endArrow=classic;" edge="1" parent="Qu2Mb2IjLPH-KH6Ql788-1" source="Qu2Mb2IjLPH-KH6Ql788-4" target="rxpXkqshc4Ru8dIJ01jS-1">
          <mxGeometry relative="1" as="geometry">
            <Array as="points">
              <mxPoint x="915" y="523" />
              <mxPoint x="915" y="420" />
              <mxPoint x="380" y="420" />
              <mxPoint x="380" y="523" />
            </Array>
          </mxGeometry>
        </mxCell>
        <mxCell id="c5zB3svai8LKGj00NOZ7-3" style="edgeStyle=orthogonalEdgeStyle;shape=connector;curved=0;rounded=1;orthogonalLoop=1;jettySize=auto;html=1;labelBackgroundColor=default;strokeColor=default;strokeWidth=2;align=center;verticalAlign=middle;fontFamily=Helvetica;fontSize=11;fontColor=default;endArrow=classic;" edge="1" parent="Qu2Mb2IjLPH-KH6Ql788-1" source="rxpXkqshc4Ru8dIJ01jS-3" target="Qu2Mb2IjLPH-KH6Ql788-6">
          <mxGeometry relative="1" as="geometry" />
        </mxCell>
        <mxCell id="c5zB3svai8LKGj00NOZ7-4" value="p.$ &amp;gt;= weapon.cost" style="rounded=1;whiteSpace=wrap;html=1;sketch=0;container=1;recursiveResize=0;verticalAlign=top;arcSize=6;fontStyle=0;autosize=0;points=[];absoluteArcSize=1;shadow=1;strokeColor=#d6b656;fillColor=#fff2cc;fontFamily=Helvetica;fontSize=11;" vertex="1" parent="Qu2Mb2IjLPH-KH6Ql788-1">
          <mxGeometry x="130" y="630" width="200" height="70" as="geometry">
            <mxRectangle x="-98" y="-1230" width="99" height="26" as="alternateBounds" />
          </mxGeometry>
        </mxCell>
        <mxCell id="c5zB3svai8LKGj00NOZ7-5" value="" style="rounded=1;whiteSpace=wrap;html=1;sketch=0;points=[[0,0.5,0,0,0],[1,0.5,0,0,0]];arcSize=50;fontFamily=Helvetica;fontSize=11;fontColor=default;" vertex="1" parent="c5zB3svai8LKGj00NOZ7-4">
          <mxGeometry x="-17.37" y="27.5" width="37.37" height="25" as="geometry" />
        </mxCell>
        <mxCell id="c5zB3svai8LKGj00NOZ7-6" value="" style="rounded=1;whiteSpace=wrap;html=1;sketch=0;points=[[0,0.5,0,0,0],[1,0.5,0,0,0]];fillColor=#1ba1e2;fontColor=#ffffff;strokeColor=#006EAF;arcSize=50;fontFamily=Helvetica;fontSize=11;" vertex="1" parent="c5zB3svai8LKGj00NOZ7-4">
          <mxGeometry x="180" y="27.5" width="37.38" height="25" as="geometry" />
        </mxCell>
        <mxCell id="c5zB3svai8LKGj00NOZ7-7" style="edgeStyle=orthogonalEdgeStyle;shape=connector;curved=0;rounded=1;orthogonalLoop=1;jettySize=auto;html=1;entryX=0;entryY=0.5;entryDx=0;entryDy=0;entryPerimeter=0;labelBackgroundColor=default;strokeColor=default;strokeWidth=2;align=center;verticalAlign=middle;fontFamily=Helvetica;fontSize=11;fontColor=default;endArrow=classic;" edge="1" parent="Qu2Mb2IjLPH-KH6Ql788-1" source="c5zB3svai8LKGj00NOZ7-6" target="c5zB3svai8LKGj00NOZ7-0">
          <mxGeometry relative="1" as="geometry" />
        </mxCell>
        <mxCell id="c5zB3svai8LKGj00NOZ7-8" style="edgeStyle=orthogonalEdgeStyle;shape=connector;curved=0;rounded=1;orthogonalLoop=1;jettySize=auto;html=1;entryX=0;entryY=0.5;entryDx=0;entryDy=0;entryPerimeter=0;labelBackgroundColor=default;strokeColor=default;strokeWidth=2;align=center;verticalAlign=middle;fontFamily=Helvetica;fontSize=11;fontColor=default;endArrow=classic;" edge="1" parent="Qu2Mb2IjLPH-KH6Ql788-1" target="c5zB3svai8LKGj00NOZ7-5">
          <mxGeometry relative="1" as="geometry">
            <mxPoint x="40" y="600" as="sourcePoint" />
            <Array as="points">
              <mxPoint x="80" y="600" />
              <mxPoint x="80" y="670" />
            </Array>
          </mxGeometry>
        </mxCell>
        <mxCell id="c5zB3svai8LKGj00NOZ7-9" style="edgeStyle=orthogonalEdgeStyle;shape=connector;curved=0;rounded=1;orthogonalLoop=1;jettySize=auto;html=1;entryX=0;entryY=0.5;entryDx=0;entryDy=0;entryPerimeter=0;labelBackgroundColor=default;strokeColor=default;strokeWidth=2;align=center;verticalAlign=middle;fontFamily=Helvetica;fontSize=11;fontColor=default;endArrow=classic;" edge="1" parent="Qu2Mb2IjLPH-KH6Ql788-1" source="Qu2Mb2IjLPH-KH6Ql788-5" target="rxpXkqshc4Ru8dIJ01jS-1">
          <mxGeometry relative="1" as="geometry">
            <Array as="points">
              <mxPoint x="80" y="600" />
              <mxPoint x="80" y="523" />
            </Array>
          </mxGeometry>
        </mxCell>
      </root>
    </mxGraphModel>
  </diagram>
  <diagram name="Adventure" id="DXX1L6fckJM75FIWBMDH">
    <mxGraphModel dx="937" dy="704" grid="1" gridSize="10" guides="1" tooltips="1" connect="1" arrows="1" fold="1" page="1" pageScale="1" pageWidth="850" pageHeight="1100" math="0" shadow="0">
      <root>
        <mxCell id="1UINljRBLR_XhzNwAAEP-0" />
        <mxCell id="1UINljRBLR_XhzNwAAEP-1" parent="1UINljRBLR_XhzNwAAEP-0" />
        <mxCell id="1UINljRBLR_XhzNwAAEP-5" value="" style="rhombus;whiteSpace=wrap;html=1;rounded=1;fontStyle=1;glass=0;sketch=0;fontSize=12;points=[[0,0.5,0,0,0],[0.5,0,0,0,0],[0.5,1,0,0,0],[1,0.5,0,0,0]];shadow=1;fontFamily=Helvetica;fontColor=default;" vertex="1" parent="1UINljRBLR_XhzNwAAEP-1">
          <mxGeometry x="15" y="630" width="80" height="80" as="geometry" />
        </mxCell>
        <mxCell id="1UINljRBLR_XhzNwAAEP-6" value="" style="rhombus;whiteSpace=wrap;html=1;rounded=1;fillColor=#0050ef;fontColor=#ffffff;strokeColor=#001DBC;fontStyle=1;glass=0;sketch=0;fontSize=12;points=[[0,0.5,0,0,0],[0.5,0,0,0,0],[0.5,1,0,0,0],[1,0.5,0,0,0]];shadow=1;fontFamily=Helvetica;" vertex="1" parent="1UINljRBLR_XhzNwAAEP-1">
          <mxGeometry x="755" y="580" width="80" height="80" as="geometry" />
        </mxCell>
        <mxCell id="1UINljRBLR_XhzNwAAEP-15" value="spoils := 0" style="rounded=1;whiteSpace=wrap;html=1;sketch=0;container=1;recursiveResize=0;verticalAlign=top;arcSize=6;fontStyle=0;autosize=0;points=[];absoluteArcSize=1;shadow=1;strokeColor=#d6b656;fillColor=#fff2cc;fontFamily=Helvetica;fontSize=11;" vertex="1" parent="1UINljRBLR_XhzNwAAEP-1">
          <mxGeometry x="155" y="630" width="110" height="70" as="geometry">
            <mxRectangle x="-98" y="-1230" width="99" height="26" as="alternateBounds" />
          </mxGeometry>
        </mxCell>
        <mxCell id="1UINljRBLR_XhzNwAAEP-16" value="" style="rounded=1;whiteSpace=wrap;html=1;sketch=0;points=[[0,0.5,0,0,0],[1,0.5,0,0,0]];arcSize=50;fontFamily=Helvetica;fontSize=11;fontColor=default;" vertex="1" parent="1UINljRBLR_XhzNwAAEP-15">
          <mxGeometry x="-17.37" y="27.5" width="37.37" height="25" as="geometry" />
        </mxCell>
        <mxCell id="1UINljRBLR_XhzNwAAEP-17" value="" style="rounded=1;whiteSpace=wrap;html=1;sketch=0;points=[[0,0.5,0,0,0],[1,0.5,0,0,0]];fillColor=#1ba1e2;fontColor=#ffffff;strokeColor=#006EAF;arcSize=50;fontFamily=Helvetica;fontSize=11;" vertex="1" parent="1UINljRBLR_XhzNwAAEP-15">
          <mxGeometry x="90" y="27.5" width="37.38" height="25" as="geometry" />
        </mxCell>
        <mxCell id="bQZ5TRRzCqjJSP3x5FIf-0" value="&lt;b&gt;Generate Monster&lt;/b&gt;" style="rounded=1;whiteSpace=wrap;html=1;sketch=0;container=1;recursiveResize=0;verticalAlign=top;arcSize=6;fontStyle=0;autosize=0;points=[];absoluteArcSize=1;shadow=1;strokeColor=#001DBC;fillColor=#0050ef;fontFamily=Helvetica;fontSize=11;fontColor=#ffffff;" vertex="1" parent="1UINljRBLR_XhzNwAAEP-1">
          <mxGeometry x="345" y="630" width="90" height="70" as="geometry">
            <mxRectangle x="-98" y="-1230" width="99" height="26" as="alternateBounds" />
          </mxGeometry>
        </mxCell>
        <mxCell id="bQZ5TRRzCqjJSP3x5FIf-1" value="" style="rounded=1;whiteSpace=wrap;html=1;sketch=0;points=[[0,0.5,0,0,0],[1,0.5,0,0,0]];arcSize=50;fontFamily=Helvetica;fontSize=11;fontColor=default;" vertex="1" parent="bQZ5TRRzCqjJSP3x5FIf-0">
          <mxGeometry x="-17.37" y="27.5" width="37.37" height="25" as="geometry" />
        </mxCell>
        <mxCell id="bQZ5TRRzCqjJSP3x5FIf-2" value="" style="rounded=1;whiteSpace=wrap;html=1;sketch=0;points=[[0,0.5,0,0,0],[1,0.5,0,0,0]];fillColor=#1ba1e2;fontColor=#ffffff;strokeColor=#006EAF;arcSize=50;fontFamily=Helvetica;fontSize=11;" vertex="1" parent="bQZ5TRRzCqjJSP3x5FIf-0">
          <mxGeometry x="60.00000000000001" y="27.5" width="37.38" height="25" as="geometry" />
        </mxCell>
        <mxCell id="bQZ5TRRzCqjJSP3x5FIf-3" style="edgeStyle=orthogonalEdgeStyle;shape=connector;curved=0;rounded=1;orthogonalLoop=1;jettySize=auto;html=1;exitX=1;exitY=0.5;exitDx=0;exitDy=0;exitPerimeter=0;entryX=0;entryY=0.5;entryDx=0;entryDy=0;entryPerimeter=0;labelBackgroundColor=default;strokeColor=default;strokeWidth=2;align=center;verticalAlign=middle;fontFamily=Helvetica;fontSize=11;fontColor=default;endArrow=classic;" edge="1" parent="1UINljRBLR_XhzNwAAEP-1" source="1UINljRBLR_XhzNwAAEP-17" target="bQZ5TRRzCqjJSP3x5FIf-1">
          <mxGeometry relative="1" as="geometry" />
        </mxCell>
        <mxCell id="684Ao3mdGtraqi_FYrTv-0" value="Fight" style="rounded=1;whiteSpace=wrap;html=1;sketch=0;container=1;recursiveResize=0;verticalAlign=top;arcSize=6;fontStyle=0;autosize=0;points=[];absoluteArcSize=1;shadow=1;strokeColor=#001DBC;fillColor=#0050ef;fontColor=#ffffff;fontFamily=Helvetica;fontSize=11;" vertex="1" parent="1UINljRBLR_XhzNwAAEP-1">
          <mxGeometry x="545" y="630" width="135" height="160" as="geometry">
            <mxRectangle x="-98" y="-1230" width="99" height="26" as="alternateBounds" />
          </mxGeometry>
        </mxCell>
        <mxCell id="684Ao3mdGtraqi_FYrTv-1" value="" style="rounded=1;whiteSpace=wrap;html=1;sketch=0;points=[[0,0.5,0,0,0],[1,0.5,0,0,0]];arcSize=50;fontFamily=Helvetica;fontSize=11;fontColor=default;" vertex="1" parent="684Ao3mdGtraqi_FYrTv-0">
          <mxGeometry x="-18.75" y="40" width="38.75" height="25" as="geometry" />
        </mxCell>
        <mxCell id="684Ao3mdGtraqi_FYrTv-2" value="" style="rounded=1;whiteSpace=wrap;html=1;sketch=0;points=[[0,0.5,0,0,0],[1,0.5,0,0,0]];fillColor=#1ba1e2;fontColor=#ffffff;strokeColor=#006EAF;arcSize=50;fontFamily=Helvetica;fontSize=11;" vertex="1" parent="684Ao3mdGtraqi_FYrTv-0">
          <mxGeometry x="110" y="40" width="38.75" height="25" as="geometry" />
        </mxCell>
        <mxCell id="684Ao3mdGtraqi_FYrTv-6" value="win" style="rounded=1;whiteSpace=wrap;html=1;sketch=0;points=[[0,0.5,0,0,0],[1,0.5,0,0,0]];fillColor=#1ba1e2;fontColor=#ffffff;strokeColor=#006EAF;arcSize=50;fontFamily=Helvetica;fontSize=11;" vertex="1" parent="684Ao3mdGtraqi_FYrTv-0">
          <mxGeometry x="82.75" y="80" width="66" height="25" as="geometry" />
        </mxCell>
        <mxCell id="684Ao3mdGtraqi_FYrTv-7" value="die" style="rounded=1;whiteSpace=wrap;html=1;sketch=0;points=[[0,0.5,0,0,0],[1,0.5,0,0,0]];fillColor=#1ba1e2;fontColor=#ffffff;strokeColor=#006EAF;arcSize=50;fontFamily=Helvetica;fontSize=11;" vertex="1" parent="684Ao3mdGtraqi_FYrTv-0">
          <mxGeometry x="82.75" y="120" width="66" height="25" as="geometry" />
        </mxCell>
        <mxCell id="684Ao3mdGtraqi_FYrTv-4" style="edgeStyle=orthogonalEdgeStyle;shape=connector;curved=0;rounded=1;orthogonalLoop=1;jettySize=auto;html=1;exitX=1;exitY=0.5;exitDx=0;exitDy=0;exitPerimeter=0;entryX=0;entryY=0.5;entryDx=0;entryDy=0;entryPerimeter=0;labelBackgroundColor=default;strokeColor=default;strokeWidth=2;align=center;verticalAlign=middle;fontFamily=Helvetica;fontSize=11;fontColor=default;endArrow=classic;" edge="1" parent="1UINljRBLR_XhzNwAAEP-1" source="bQZ5TRRzCqjJSP3x5FIf-2" target="684Ao3mdGtraqi_FYrTv-1">
          <mxGeometry relative="1" as="geometry" />
        </mxCell>
        <mxCell id="684Ao3mdGtraqi_FYrTv-5" style="edgeStyle=orthogonalEdgeStyle;shape=connector;curved=0;rounded=1;orthogonalLoop=1;jettySize=auto;html=1;exitX=1;exitY=0.5;exitDx=0;exitDy=0;exitPerimeter=0;entryX=0;entryY=0.5;entryDx=0;entryDy=0;entryPerimeter=0;labelBackgroundColor=default;strokeColor=default;strokeWidth=2;align=center;verticalAlign=middle;fontFamily=Helvetica;fontSize=11;fontColor=default;endArrow=classic;" edge="1" parent="1UINljRBLR_XhzNwAAEP-1" source="684Ao3mdGtraqi_FYrTv-2" target="1UINljRBLR_XhzNwAAEP-6">
          <mxGeometry relative="1" as="geometry" />
        </mxCell>
        <mxCell id="684Ao3mdGtraqi_FYrTv-8" value="win" style="rhombus;whiteSpace=wrap;html=1;rounded=1;fillColor=#0050ef;fontColor=#ffffff;strokeColor=#001DBC;fontStyle=1;glass=0;sketch=0;fontSize=12;points=[[0,0.5,0,0,0],[0.5,0,0,0,0],[0.5,1,0,0,0],[1,0.5,0,0,0]];shadow=1;fontFamily=Helvetica;" vertex="1" parent="1UINljRBLR_XhzNwAAEP-1">
          <mxGeometry x="755" y="685" width="80" height="80" as="geometry" />
        </mxCell>
        <mxCell id="684Ao3mdGtraqi_FYrTv-9" value="die" style="rhombus;whiteSpace=wrap;html=1;rounded=1;fillColor=#0050ef;fontColor=#ffffff;strokeColor=#001DBC;fontStyle=1;glass=0;sketch=0;fontSize=12;points=[[0,0.5,0,0,0],[0.5,0,0,0,0],[0.5,1,0,0,0],[1,0.5,0,0,0]];shadow=1;fontFamily=Helvetica;" vertex="1" parent="1UINljRBLR_XhzNwAAEP-1">
          <mxGeometry x="755" y="795" width="80" height="80" as="geometry" />
        </mxCell>
        <mxCell id="684Ao3mdGtraqi_FYrTv-10" style="edgeStyle=orthogonalEdgeStyle;shape=connector;curved=0;rounded=1;orthogonalLoop=1;jettySize=auto;html=1;exitX=1;exitY=0.5;exitDx=0;exitDy=0;exitPerimeter=0;entryX=0;entryY=0.5;entryDx=0;entryDy=0;entryPerimeter=0;labelBackgroundColor=default;strokeColor=default;strokeWidth=2;align=center;verticalAlign=middle;fontFamily=Helvetica;fontSize=11;fontColor=default;endArrow=classic;" edge="1" parent="1UINljRBLR_XhzNwAAEP-1" source="684Ao3mdGtraqi_FYrTv-6" target="684Ao3mdGtraqi_FYrTv-8">
          <mxGeometry relative="1" as="geometry" />
        </mxCell>
        <mxCell id="684Ao3mdGtraqi_FYrTv-11" style="edgeStyle=orthogonalEdgeStyle;shape=connector;curved=0;rounded=1;orthogonalLoop=1;jettySize=auto;html=1;exitX=1;exitY=0.5;exitDx=0;exitDy=0;exitPerimeter=0;entryX=0;entryY=0.5;entryDx=0;entryDy=0;entryPerimeter=0;labelBackgroundColor=default;strokeColor=default;strokeWidth=2;align=center;verticalAlign=middle;fontFamily=Helvetica;fontSize=11;fontColor=default;endArrow=classic;" edge="1" parent="1UINljRBLR_XhzNwAAEP-1" source="684Ao3mdGtraqi_FYrTv-7" target="684Ao3mdGtraqi_FYrTv-9">
          <mxGeometry relative="1" as="geometry">
            <Array as="points">
              <mxPoint x="715" y="763" />
              <mxPoint x="715" y="835" />
            </Array>
          </mxGeometry>
        </mxCell>
        <mxCell id="rEzqenvIAFFVOOxTe2zf-0" style="edgeStyle=orthogonalEdgeStyle;shape=connector;curved=0;rounded=1;orthogonalLoop=1;jettySize=auto;html=1;entryX=0;entryY=0.5;entryDx=0;entryDy=0;entryPerimeter=0;labelBackgroundColor=default;strokeColor=default;strokeWidth=2;align=center;verticalAlign=middle;fontFamily=Helvetica;fontSize=11;fontColor=default;endArrow=classic;" edge="1" parent="1UINljRBLR_XhzNwAAEP-1" source="1UINljRBLR_XhzNwAAEP-5" target="1UINljRBLR_XhzNwAAEP-16">
          <mxGeometry relative="1" as="geometry" />
        </mxCell>
      </root>
    </mxGraphModel>
  </diagram>
  <diagram id="bo0ah3iYYRDatqKn-n7G" name="Fight">
    <mxGraphModel dx="937" dy="704" grid="1" gridSize="10" guides="1" tooltips="1" connect="1" arrows="1" fold="1" page="1" pageScale="1" pageWidth="850" pageHeight="1100" math="0" shadow="0">
      <root>
        <mxCell id="0" />
        <mxCell id="1" parent="0" />
        <mxCell id="RvZ8IXWyRlv80F8y5ioc-1" value="Fight Auto" style="rounded=1;whiteSpace=wrap;html=1;sketch=0;container=1;recursiveResize=0;verticalAlign=top;arcSize=6;fontStyle=0;autosize=0;points=[];absoluteArcSize=1;shadow=1;strokeColor=#001DBC;fillColor=#0050ef;fontColor=#ffffff;fontFamily=Helvetica;fontSize=11;" vertex="1" parent="1">
          <mxGeometry x="358" y="240" width="132" height="220" as="geometry">
            <mxRectangle x="-98" y="-1230" width="99" height="26" as="alternateBounds" />
          </mxGeometry>
        </mxCell>
        <mxCell id="RvZ8IXWyRlv80F8y5ioc-2" value="step" style="rounded=1;whiteSpace=wrap;html=1;sketch=0;points=[[0,0.5,0,0,0],[1,0.5,0,0,0]];arcSize=50;fontFamily=Helvetica;fontSize=11;fontColor=default;" vertex="1" parent="RvZ8IXWyRlv80F8y5ioc-1">
          <mxGeometry x="-18.75" y="40" width="38.75" height="25" as="geometry" />
        </mxCell>
        <mxCell id="RvZ8IXWyRlv80F8y5ioc-5" value="die" style="rounded=1;whiteSpace=wrap;html=1;sketch=0;points=[[0,0.5,0,0,0],[1,0.5,0,0,0]];fillColor=#1ba1e2;fontColor=#ffffff;strokeColor=#006EAF;arcSize=50;fontFamily=Helvetica;fontSize=11;" vertex="1" parent="RvZ8IXWyRlv80F8y5ioc-1">
          <mxGeometry x="82.75" y="150" width="66" height="25" as="geometry" />
        </mxCell>
        <mxCell id="RvZ8IXWyRlv80F8y5ioc-8" value="flee" style="rounded=1;whiteSpace=wrap;html=1;sketch=0;points=[[0,0.5,0,0,0],[1,0.5,0,0,0]];fillColor=#1ba1e2;fontColor=#ffffff;strokeColor=#006EAF;arcSize=50;fontFamily=Helvetica;fontSize=11;" vertex="1" parent="RvZ8IXWyRlv80F8y5ioc-1">
          <mxGeometry x="82.75" y="180" width="66" height="25" as="geometry" />
        </mxCell>
        <mxCell id="RvZ8IXWyRlv80F8y5ioc-6" value="hit value" style="rounded=1;whiteSpace=wrap;html=1;sketch=0;points=[[0,0.5,0,0,0],[1,0.5,0,0,0]];fillColor=#1ba1e2;fontColor=#ffffff;strokeColor=#006EAF;arcSize=50;fontFamily=Helvetica;fontSize=11;" vertex="1" parent="RvZ8IXWyRlv80F8y5ioc-1">
          <mxGeometry x="82.75" y="40" width="66" height="25" as="geometry" />
        </mxCell>
        <mxCell id="RvZ8IXWyRlv80F8y5ioc-7" value="miss value" style="rounded=1;whiteSpace=wrap;html=1;sketch=0;points=[[0,0.5,0,0,0],[1,0.5,0,0,0]];fillColor=#1ba1e2;fontColor=#ffffff;strokeColor=#006EAF;arcSize=50;fontFamily=Helvetica;fontSize=11;" vertex="1" parent="RvZ8IXWyRlv80F8y5ioc-1">
          <mxGeometry x="82.75" y="70" width="66" height="25" as="geometry" />
        </mxCell>
        <mxCell id="RvZ8IXWyRlv80F8y5ioc-4" value="win" style="rounded=1;whiteSpace=wrap;html=1;sketch=0;points=[[0,0.5,0,0,0],[1,0.5,0,0,0]];fillColor=#1ba1e2;fontColor=#ffffff;strokeColor=#006EAF;arcSize=50;fontFamily=Helvetica;fontSize=11;" vertex="1" parent="RvZ8IXWyRlv80F8y5ioc-1">
          <mxGeometry x="82.75" y="120" width="66" height="25" as="geometry" />
        </mxCell>
        <mxCell id="DSWWS2THtBQhNBV8E7nN-1" value="m.ok ⇣ ◦" style="rounded=1;whiteSpace=wrap;html=1;sketch=0;container=1;recursiveResize=0;verticalAlign=top;arcSize=6;fontStyle=0;autosize=0;points=[];absoluteArcSize=1;shadow=1;strokeColor=#d6b656;fillColor=#fff2cc;fontFamily=Helvetica;fontSize=11;" vertex="1" parent="1">
          <mxGeometry x="600" y="190" width="110" height="70" as="geometry">
            <mxRectangle x="-98" y="-1230" width="99" height="26" as="alternateBounds" />
          </mxGeometry>
        </mxCell>
        <mxCell id="DSWWS2THtBQhNBV8E7nN-2" value="" style="rounded=1;whiteSpace=wrap;html=1;sketch=0;points=[[0,0.5,0,0,0],[1,0.5,0,0,0]];arcSize=50;fontFamily=Helvetica;fontSize=11;fontColor=default;" vertex="1" parent="DSWWS2THtBQhNBV8E7nN-1">
          <mxGeometry x="-17.37" y="27.5" width="37.37" height="25" as="geometry" />
        </mxCell>
        <mxCell id="DSWWS2THtBQhNBV8E7nN-3" value="" style="rounded=1;whiteSpace=wrap;html=1;sketch=0;points=[[0,0.5,0,0,0],[1,0.5,0,0,0]];fillColor=#1ba1e2;fontColor=#ffffff;strokeColor=#006EAF;arcSize=50;fontFamily=Helvetica;fontSize=11;" vertex="1" parent="DSWWS2THtBQhNBV8E7nN-1">
          <mxGeometry x="90" y="27.5" width="37.38" height="25" as="geometry" />
        </mxCell>
        <mxCell id="DSWWS2THtBQhNBV8E7nN-4" value="p.ok ⇣ ◦" style="rounded=1;whiteSpace=wrap;html=1;sketch=0;container=1;recursiveResize=0;verticalAlign=top;arcSize=6;fontStyle=0;autosize=0;points=[];absoluteArcSize=1;shadow=1;strokeColor=#d6b656;fillColor=#fff2cc;fontFamily=Helvetica;fontSize=11;" vertex="1" parent="1">
          <mxGeometry x="600" y="280" width="110" height="70" as="geometry">
            <mxRectangle x="-98" y="-1230" width="99" height="26" as="alternateBounds" />
          </mxGeometry>
        </mxCell>
        <mxCell id="DSWWS2THtBQhNBV8E7nN-5" value="" style="rounded=1;whiteSpace=wrap;html=1;sketch=0;points=[[0,0.5,0,0,0],[1,0.5,0,0,0]];arcSize=50;fontFamily=Helvetica;fontSize=11;fontColor=default;" vertex="1" parent="DSWWS2THtBQhNBV8E7nN-4">
          <mxGeometry x="-17.37" y="27.5" width="37.37" height="25" as="geometry" />
        </mxCell>
        <mxCell id="DSWWS2THtBQhNBV8E7nN-6" value="" style="rounded=1;whiteSpace=wrap;html=1;sketch=0;points=[[0,0.5,0,0,0],[1,0.5,0,0,0]];fillColor=#1ba1e2;fontColor=#ffffff;strokeColor=#006EAF;arcSize=50;fontFamily=Helvetica;fontSize=11;" vertex="1" parent="DSWWS2THtBQhNBV8E7nN-4">
          <mxGeometry x="90" y="27.5" width="37.38" height="25" as="geometry" />
        </mxCell>
        <mxCell id="DSWWS2THtBQhNBV8E7nN-7" style="edgeStyle=orthogonalEdgeStyle;shape=connector;curved=0;rounded=1;orthogonalLoop=1;jettySize=auto;html=1;exitX=1;exitY=0.5;exitDx=0;exitDy=0;exitPerimeter=0;labelBackgroundColor=default;strokeColor=default;strokeWidth=2;align=center;verticalAlign=middle;fontFamily=Helvetica;fontSize=11;fontColor=default;endArrow=classic;" edge="1" parent="1" source="RvZ8IXWyRlv80F8y5ioc-7" target="DSWWS2THtBQhNBV8E7nN-5">
          <mxGeometry relative="1" as="geometry" />
        </mxCell>
        <mxCell id="DSWWS2THtBQhNBV8E7nN-8" style="edgeStyle=orthogonalEdgeStyle;shape=connector;curved=0;rounded=1;orthogonalLoop=1;jettySize=auto;html=1;exitX=1;exitY=0.5;exitDx=0;exitDy=0;exitPerimeter=0;labelBackgroundColor=default;strokeColor=default;strokeWidth=2;align=center;verticalAlign=middle;fontFamily=Helvetica;fontSize=11;fontColor=default;endArrow=classic;entryX=0;entryY=0.5;entryDx=0;entryDy=0;entryPerimeter=0;" edge="1" parent="1" source="RvZ8IXWyRlv80F8y5ioc-6" target="DSWWS2THtBQhNBV8E7nN-2">
          <mxGeometry relative="1" as="geometry">
            <mxPoint x="560" y="230" as="targetPoint" />
          </mxGeometry>
        </mxCell>
        <mxCell id="DSWWS2THtBQhNBV8E7nN-9" style="edgeStyle=orthogonalEdgeStyle;shape=connector;curved=0;rounded=1;orthogonalLoop=1;jettySize=auto;html=1;exitX=1;exitY=0.5;exitDx=0;exitDy=0;exitPerimeter=0;labelBackgroundColor=default;strokeColor=default;strokeWidth=2;align=center;verticalAlign=middle;fontFamily=Helvetica;fontSize=11;fontColor=default;endArrow=classic;entryX=0;entryY=0.5;entryDx=0;entryDy=0;entryPerimeter=0;" edge="1" parent="1" source="DSWWS2THtBQhNBV8E7nN-3" target="RvZ8IXWyRlv80F8y5ioc-2">
          <mxGeometry relative="1" as="geometry">
            <Array as="points">
              <mxPoint x="747" y="230" />
              <mxPoint x="747" y="160" />
              <mxPoint x="320" y="160" />
              <mxPoint x="320" y="293" />
            </Array>
          </mxGeometry>
        </mxCell>
        <mxCell id="DSWWS2THtBQhNBV8E7nN-10" style="edgeStyle=orthogonalEdgeStyle;shape=connector;curved=0;rounded=1;orthogonalLoop=1;jettySize=auto;html=1;exitX=1;exitY=0.5;exitDx=0;exitDy=0;exitPerimeter=0;entryX=0;entryY=0.5;entryDx=0;entryDy=0;entryPerimeter=0;labelBackgroundColor=default;strokeColor=default;strokeWidth=2;align=center;verticalAlign=middle;fontFamily=Helvetica;fontSize=11;fontColor=default;endArrow=classic;" edge="1" parent="1" source="DSWWS2THtBQhNBV8E7nN-6" target="RvZ8IXWyRlv80F8y5ioc-2">
          <mxGeometry relative="1" as="geometry">
            <Array as="points">
              <mxPoint x="747" y="320" />
              <mxPoint x="747" y="160" />
              <mxPoint x="319" y="160" />
              <mxPoint x="319" y="293" />
            </Array>
          </mxGeometry>
        </mxCell>
        <mxCell id="DSWWS2THtBQhNBV8E7nN-11" value="" style="rhombus;whiteSpace=wrap;html=1;rounded=1;fontStyle=1;glass=0;sketch=0;fontSize=12;points=[[0,0.5,0,0,0],[0.5,0,0,0,0],[0.5,1,0,0,0],[1,0.5,0,0,0]];shadow=1;fontFamily=Helvetica;fontColor=default;" vertex="1" parent="1">
          <mxGeometry x="210" y="250" width="80" height="80" as="geometry" />
        </mxCell>
        <mxCell id="DSWWS2THtBQhNBV8E7nN-12" value="win" style="rhombus;whiteSpace=wrap;html=1;rounded=1;fillColor=#0050ef;fontColor=#ffffff;strokeColor=#001DBC;fontStyle=1;glass=0;sketch=0;fontSize=12;points=[[0,0.5,0,0,0],[0.5,0,0,0,0],[0.5,1,0,0,0],[1,0.5,0,0,0]];shadow=1;fontFamily=Helvetica;" vertex="1" parent="1">
          <mxGeometry x="760" y="330" width="80" height="80" as="geometry" />
        </mxCell>
        <mxCell id="DSWWS2THtBQhNBV8E7nN-13" style="edgeStyle=orthogonalEdgeStyle;shape=connector;curved=0;rounded=1;orthogonalLoop=1;jettySize=auto;html=1;exitX=1;exitY=0.5;exitDx=0;exitDy=0;exitPerimeter=0;entryX=0;entryY=0.5;entryDx=0;entryDy=0;entryPerimeter=0;labelBackgroundColor=default;strokeColor=default;strokeWidth=2;align=center;verticalAlign=middle;fontFamily=Helvetica;fontSize=11;fontColor=default;endArrow=classic;" edge="1" parent="1" source="DSWWS2THtBQhNBV8E7nN-11" target="RvZ8IXWyRlv80F8y5ioc-2">
          <mxGeometry relative="1" as="geometry" />
        </mxCell>
        <mxCell id="DSWWS2THtBQhNBV8E7nN-14" style="edgeStyle=orthogonalEdgeStyle;shape=connector;curved=0;rounded=1;orthogonalLoop=1;jettySize=auto;html=1;exitX=1;exitY=0.5;exitDx=0;exitDy=0;exitPerimeter=0;entryX=0;entryY=0.5;entryDx=0;entryDy=0;entryPerimeter=0;labelBackgroundColor=default;strokeColor=default;strokeWidth=2;align=center;verticalAlign=middle;fontFamily=Helvetica;fontSize=11;fontColor=default;endArrow=classic;" edge="1" parent="1" source="RvZ8IXWyRlv80F8y5ioc-4" target="DSWWS2THtBQhNBV8E7nN-12">
          <mxGeometry relative="1" as="geometry" />
        </mxCell>
        <mxCell id="DSWWS2THtBQhNBV8E7nN-15" value="die" style="rhombus;whiteSpace=wrap;html=1;rounded=1;fillColor=#0050ef;fontColor=#ffffff;strokeColor=#001DBC;fontStyle=1;glass=0;sketch=0;fontSize=12;points=[[0,0.5,0,0,0],[0.5,0,0,0,0],[0.5,1,0,0,0],[1,0.5,0,0,0]];shadow=1;fontFamily=Helvetica;" vertex="1" parent="1">
          <mxGeometry x="760" y="420" width="80" height="80" as="geometry" />
        </mxCell>
        <mxCell id="DSWWS2THtBQhNBV8E7nN-16" value="flee" style="rhombus;whiteSpace=wrap;html=1;rounded=1;fillColor=#0050ef;fontColor=#ffffff;strokeColor=#001DBC;fontStyle=1;glass=0;sketch=0;fontSize=12;points=[[0,0.5,0,0,0],[0.5,0,0,0,0],[0.5,1,0,0,0],[1,0.5,0,0,0]];shadow=1;fontFamily=Helvetica;" vertex="1" parent="1">
          <mxGeometry x="760" y="510" width="80" height="80" as="geometry" />
        </mxCell>
        <mxCell id="DSWWS2THtBQhNBV8E7nN-17" style="edgeStyle=orthogonalEdgeStyle;shape=connector;curved=0;rounded=1;orthogonalLoop=1;jettySize=auto;html=1;exitX=1;exitY=0.5;exitDx=0;exitDy=0;exitPerimeter=0;entryX=0;entryY=0.5;entryDx=0;entryDy=0;entryPerimeter=0;labelBackgroundColor=default;strokeColor=default;strokeWidth=2;align=center;verticalAlign=middle;fontFamily=Helvetica;fontSize=11;fontColor=default;endArrow=classic;" edge="1" parent="1" source="RvZ8IXWyRlv80F8y5ioc-5" target="DSWWS2THtBQhNBV8E7nN-15">
          <mxGeometry relative="1" as="geometry" />
        </mxCell>
        <mxCell id="DSWWS2THtBQhNBV8E7nN-18" style="edgeStyle=orthogonalEdgeStyle;shape=connector;curved=0;rounded=1;orthogonalLoop=1;jettySize=auto;html=1;exitX=1;exitY=0.5;exitDx=0;exitDy=0;exitPerimeter=0;entryX=0;entryY=0.5;entryDx=0;entryDy=0;entryPerimeter=0;labelBackgroundColor=default;strokeColor=default;strokeWidth=2;align=center;verticalAlign=middle;fontFamily=Helvetica;fontSize=11;fontColor=default;endArrow=classic;" edge="1" parent="1" source="RvZ8IXWyRlv80F8y5ioc-8" target="DSWWS2THtBQhNBV8E7nN-16">
          <mxGeometry relative="1" as="geometry">
            <Array as="points">
              <mxPoint x="560" y="433" />
              <mxPoint x="560" y="550" />
            </Array>
          </mxGeometry>
        </mxCell>
      </root>
    </mxGraphModel>
  </diagram>
  <diagram id="Z1zbJIgK9RGWiPMPSnbc" name="Fight Auto">
    <mxGraphModel dx="937" dy="704" grid="1" gridSize="10" guides="1" tooltips="1" connect="1" arrows="1" fold="1" page="1" pageScale="1" pageWidth="850" pageHeight="1100" math="0" shadow="0">
      <root>
        <mxCell id="0" />
        <mxCell id="1" parent="0" />
        <mxCell id="GGTo5iLEeKvfaWeDn-yA-18" value="" style="rhombus;whiteSpace=wrap;html=1;rounded=1;fontStyle=1;glass=0;sketch=0;fontSize=12;points=[[0,0.5,0,0,0],[0.5,0,0,0,0],[0.5,1,0,0,0],[1,0.5,0,0,0]];shadow=1;fontFamily=Helvetica;fontColor=default;" vertex="1" parent="1">
          <mxGeometry x="160" y="110" width="80" height="80" as="geometry" />
        </mxCell>
        <mxCell id="GGTo5iLEeKvfaWeDn-yA-19" value="win" style="rhombus;whiteSpace=wrap;html=1;rounded=1;fillColor=#0050ef;fontColor=#ffffff;strokeColor=#001DBC;fontStyle=1;glass=0;sketch=0;fontSize=12;points=[[0,0.5,0,0,0],[0.5,0,0,0,0],[0.5,1,0,0,0],[1,0.5,0,0,0]];shadow=1;fontFamily=Helvetica;" vertex="1" parent="1">
          <mxGeometry x="790" y="230" width="80" height="80" as="geometry" />
        </mxCell>
        <mxCell id="GGTo5iLEeKvfaWeDn-yA-22" value="die" style="rhombus;whiteSpace=wrap;html=1;rounded=1;fillColor=#0050ef;fontColor=#ffffff;strokeColor=#001DBC;fontStyle=1;glass=0;sketch=0;fontSize=12;points=[[0,0.5,0,0,0],[0.5,0,0,0,0],[0.5,1,0,0,0],[1,0.5,0,0,0]];shadow=1;fontFamily=Helvetica;" vertex="1" parent="1">
          <mxGeometry x="790" y="110" width="80" height="80" as="geometry" />
        </mxCell>
        <mxCell id="GGTo5iLEeKvfaWeDn-yA-29" value="p.ok = 0" style="rounded=1;whiteSpace=wrap;html=1;sketch=0;container=1;recursiveResize=0;verticalAlign=middle;arcSize=6;fontStyle=0;autosize=0;points=[];absoluteArcSize=1;shadow=1;strokeColor=#d6b656;fillColor=#fff2cc;fontFamily=Helvetica;fontSize=11;" vertex="1" parent="1">
          <mxGeometry x="310" y="110" width="110" height="70" as="geometry">
            <mxRectangle x="-98" y="-1230" width="99" height="26" as="alternateBounds" />
          </mxGeometry>
        </mxCell>
        <mxCell id="GGTo5iLEeKvfaWeDn-yA-30" value="" style="rounded=1;whiteSpace=wrap;html=1;sketch=0;points=[[0,0.5,0,0,0],[1,0.5,0,0,0]];arcSize=50;fontFamily=Helvetica;fontSize=11;fontColor=default;" vertex="1" parent="GGTo5iLEeKvfaWeDn-yA-29">
          <mxGeometry x="-17.37" y="27.5" width="37.37" height="25" as="geometry" />
        </mxCell>
        <mxCell id="GGTo5iLEeKvfaWeDn-yA-31" value="yes" style="rounded=1;whiteSpace=wrap;html=1;sketch=0;points=[[0,0.5,0,0,0],[1,0.5,0,0,0]];fillColor=#1ba1e2;fontColor=#ffffff;strokeColor=#006EAF;arcSize=50;fontFamily=Helvetica;fontSize=11;" vertex="1" parent="GGTo5iLEeKvfaWeDn-yA-29">
          <mxGeometry x="90" y="27.5" width="37.38" height="25" as="geometry" />
        </mxCell>
        <mxCell id="GGTo5iLEeKvfaWeDn-yA-32" value="no" style="rounded=1;whiteSpace=wrap;html=1;sketch=0;points=[[0,0.5,0,0,0],[1,0.5,0,0,0]];fillColor=#1ba1e2;fontColor=#ffffff;strokeColor=#006EAF;arcSize=50;fontFamily=Helvetica;fontSize=11;" vertex="1" parent="GGTo5iLEeKvfaWeDn-yA-29">
          <mxGeometry x="36.31" y="55" width="37.38" height="25" as="geometry" />
        </mxCell>
        <mxCell id="GGTo5iLEeKvfaWeDn-yA-33" value="m.ok = 0" style="rounded=1;whiteSpace=wrap;html=1;sketch=0;container=1;recursiveResize=0;verticalAlign=middle;arcSize=6;fontStyle=0;autosize=0;points=[];absoluteArcSize=1;shadow=1;strokeColor=#d6b656;fillColor=#fff2cc;fontFamily=Helvetica;fontSize=11;" vertex="1" parent="1">
          <mxGeometry x="310" y="230" width="110" height="70" as="geometry">
            <mxRectangle x="-98" y="-1230" width="99" height="26" as="alternateBounds" />
          </mxGeometry>
        </mxCell>
        <mxCell id="GGTo5iLEeKvfaWeDn-yA-35" value="yes" style="rounded=1;whiteSpace=wrap;html=1;sketch=0;points=[[0,0.5,0,0,0],[1,0.5,0,0,0]];fillColor=#1ba1e2;fontColor=#ffffff;strokeColor=#006EAF;arcSize=50;fontFamily=Helvetica;fontSize=11;" vertex="1" parent="GGTo5iLEeKvfaWeDn-yA-33">
          <mxGeometry x="90" y="27.5" width="37.38" height="25" as="geometry" />
        </mxCell>
        <mxCell id="GGTo5iLEeKvfaWeDn-yA-36" value="no" style="rounded=1;whiteSpace=wrap;html=1;sketch=0;points=[[0,0.5,0,0,0],[1,0.5,0,0,0]];fillColor=#1ba1e2;fontColor=#ffffff;strokeColor=#006EAF;arcSize=50;fontFamily=Helvetica;fontSize=11;" vertex="1" parent="GGTo5iLEeKvfaWeDn-yA-33">
          <mxGeometry x="36.31" y="55" width="37.38" height="25" as="geometry" />
        </mxCell>
        <mxCell id="GGTo5iLEeKvfaWeDn-yA-34" value="" style="rounded=1;whiteSpace=wrap;html=1;sketch=0;points=[[0,0.5,0,0,0],[1,0.5,0,0,0]];arcSize=50;fontFamily=Helvetica;fontSize=11;fontColor=default;" vertex="1" parent="GGTo5iLEeKvfaWeDn-yA-33">
          <mxGeometry x="36.31" y="-10" width="37.37" height="25" as="geometry" />
        </mxCell>
        <mxCell id="GGTo5iLEeKvfaWeDn-yA-38" style="edgeStyle=orthogonalEdgeStyle;shape=connector;curved=0;rounded=1;orthogonalLoop=1;jettySize=auto;html=1;exitX=1;exitY=0.5;exitDx=0;exitDy=0;exitPerimeter=0;labelBackgroundColor=default;strokeColor=default;strokeWidth=2;align=center;verticalAlign=middle;fontFamily=Helvetica;fontSize=11;fontColor=default;endArrow=classic;entryX=0;entryY=0.5;entryDx=0;entryDy=0;entryPerimeter=0;" edge="1" parent="1" source="GGTo5iLEeKvfaWeDn-yA-31" target="GGTo5iLEeKvfaWeDn-yA-22">
          <mxGeometry relative="1" as="geometry">
            <mxPoint x="690" y="170" as="targetPoint" />
            <Array as="points" />
          </mxGeometry>
        </mxCell>
        <mxCell id="GGTo5iLEeKvfaWeDn-yA-39" style="edgeStyle=orthogonalEdgeStyle;shape=connector;curved=0;rounded=1;orthogonalLoop=1;jettySize=auto;html=1;exitX=1;exitY=0.5;exitDx=0;exitDy=0;exitPerimeter=0;entryX=0;entryY=0.5;entryDx=0;entryDy=0;entryPerimeter=0;labelBackgroundColor=default;strokeColor=default;strokeWidth=2;align=center;verticalAlign=middle;fontFamily=Helvetica;fontSize=11;fontColor=default;endArrow=classic;" edge="1" parent="1" source="GGTo5iLEeKvfaWeDn-yA-35" target="GGTo5iLEeKvfaWeDn-yA-19">
          <mxGeometry relative="1" as="geometry" />
        </mxCell>
        <mxCell id="NMr8HaKR2SnvibI-WVKh-1" value="&lt;b&gt;choose&lt;/b&gt;&lt;br&gt;&quot;fight&quot;, &lt;br&gt;&quot;flee&quot;" style="rounded=1;whiteSpace=wrap;html=1;sketch=0;container=1;recursiveResize=0;verticalAlign=middle;arcSize=6;fontStyle=0;autosize=0;points=[];absoluteArcSize=1;shadow=1;strokeColor=#d6b656;fillColor=#fff2cc;fontFamily=Helvetica;fontSize=11;" vertex="1" parent="1">
          <mxGeometry x="290" y="350" width="150" height="100" as="geometry">
            <mxRectangle x="-98" y="-1230" width="99" height="26" as="alternateBounds" />
          </mxGeometry>
        </mxCell>
        <mxCell id="NMr8HaKR2SnvibI-WVKh-5" value="&quot;flee&quot;" style="rounded=1;whiteSpace=wrap;html=1;sketch=0;points=[[0,0.5,0,0,0],[1,0.5,0,0,0]];fillColor=#1ba1e2;fontColor=#ffffff;strokeColor=#006EAF;arcSize=50;fontFamily=Helvetica;fontSize=11;" vertex="1" parent="NMr8HaKR2SnvibI-WVKh-1">
          <mxGeometry x="124" y="70" width="66" height="25" as="geometry" />
        </mxCell>
        <mxCell id="NMr8HaKR2SnvibI-WVKh-2" value="" style="rounded=1;whiteSpace=wrap;html=1;sketch=0;points=[[0,0.5,0,0,0],[1,0.5,0,0,0]];arcSize=50;fontFamily=Helvetica;fontSize=11;fontColor=default;" vertex="1" parent="NMr8HaKR2SnvibI-WVKh-1">
          <mxGeometry x="55.63" y="-10" width="38.75" height="25" as="geometry" />
        </mxCell>
        <mxCell id="NMr8HaKR2SnvibI-WVKh-10" value="flee" style="rhombus;whiteSpace=wrap;html=1;rounded=1;fillColor=#0050ef;fontColor=#ffffff;strokeColor=#001DBC;fontStyle=1;glass=0;sketch=0;fontSize=12;points=[[0,0.5,0,0,0],[0.5,0,0,0,0],[0.5,1,0,0,0],[1,0.5,0,0,0]];shadow=1;fontFamily=Helvetica;" vertex="1" parent="1">
          <mxGeometry x="790" y="520" width="80" height="80" as="geometry" />
        </mxCell>
        <mxCell id="NMr8HaKR2SnvibI-WVKh-11" style="edgeStyle=orthogonalEdgeStyle;shape=connector;curved=0;rounded=1;orthogonalLoop=1;jettySize=auto;html=1;exitX=1;exitY=0.5;exitDx=0;exitDy=0;exitPerimeter=0;entryX=0;entryY=0.5;entryDx=0;entryDy=0;entryPerimeter=0;labelBackgroundColor=default;strokeColor=default;strokeWidth=2;align=center;verticalAlign=middle;fontFamily=Helvetica;fontSize=11;fontColor=default;endArrow=classic;" edge="1" parent="1" source="NMr8HaKR2SnvibI-WVKh-5" target="NMr8HaKR2SnvibI-WVKh-10">
          <mxGeometry relative="1" as="geometry">
            <Array as="points">
              <mxPoint x="510" y="433" />
              <mxPoint x="510" y="560" />
            </Array>
          </mxGeometry>
        </mxCell>
        <mxCell id="NMr8HaKR2SnvibI-WVKh-13" value="Fight Step" style="rounded=1;whiteSpace=wrap;html=1;sketch=0;container=1;recursiveResize=0;verticalAlign=top;arcSize=6;fontStyle=0;autosize=0;points=[];absoluteArcSize=1;shadow=1;strokeColor=#001DBC;fillColor=#0050ef;fontColor=#ffffff;fontFamily=Helvetica;fontSize=11;" vertex="1" parent="1">
          <mxGeometry x="540" y="310" width="132" height="220" as="geometry">
            <mxRectangle x="-98" y="-1230" width="99" height="26" as="alternateBounds" />
          </mxGeometry>
        </mxCell>
        <mxCell id="NMr8HaKR2SnvibI-WVKh-14" value="step" style="rounded=1;whiteSpace=wrap;html=1;sketch=0;points=[[0,0.5,0,0,0],[1,0.5,0,0,0]];arcSize=50;fontFamily=Helvetica;fontSize=11;fontColor=default;" vertex="1" parent="NMr8HaKR2SnvibI-WVKh-13">
          <mxGeometry x="-18.75" y="65" width="38.75" height="25" as="geometry" />
        </mxCell>
        <mxCell id="NMr8HaKR2SnvibI-WVKh-15" value="die" style="rounded=1;whiteSpace=wrap;html=1;sketch=0;points=[[0,0.5,0,0,0],[1,0.5,0,0,0]];fillColor=#1ba1e2;fontColor=#ffffff;strokeColor=#006EAF;arcSize=50;fontFamily=Helvetica;fontSize=11;" vertex="1" parent="NMr8HaKR2SnvibI-WVKh-13">
          <mxGeometry x="82.75" y="150" width="66" height="25" as="geometry" />
        </mxCell>
        <mxCell id="NMr8HaKR2SnvibI-WVKh-17" value="hit value" style="rounded=1;whiteSpace=wrap;html=1;sketch=0;points=[[0,0.5,0,0,0],[1,0.5,0,0,0]];fillColor=#1ba1e2;fontColor=#ffffff;strokeColor=#006EAF;arcSize=50;fontFamily=Helvetica;fontSize=11;" vertex="1" parent="NMr8HaKR2SnvibI-WVKh-13">
          <mxGeometry x="82.75" y="40" width="66" height="25" as="geometry" />
        </mxCell>
        <mxCell id="NMr8HaKR2SnvibI-WVKh-18" value="miss value" style="rounded=1;whiteSpace=wrap;html=1;sketch=0;points=[[0,0.5,0,0,0],[1,0.5,0,0,0]];fillColor=#1ba1e2;fontColor=#ffffff;strokeColor=#006EAF;arcSize=50;fontFamily=Helvetica;fontSize=11;" vertex="1" parent="NMr8HaKR2SnvibI-WVKh-13">
          <mxGeometry x="82.75" y="70" width="66" height="25" as="geometry" />
        </mxCell>
        <mxCell id="NMr8HaKR2SnvibI-WVKh-19" value="win" style="rounded=1;whiteSpace=wrap;html=1;sketch=0;points=[[0,0.5,0,0,0],[1,0.5,0,0,0]];fillColor=#1ba1e2;fontColor=#ffffff;strokeColor=#006EAF;arcSize=50;fontFamily=Helvetica;fontSize=11;" vertex="1" parent="NMr8HaKR2SnvibI-WVKh-13">
          <mxGeometry x="82.75" y="120" width="66" height="25" as="geometry" />
        </mxCell>
        <mxCell id="NMr8HaKR2SnvibI-WVKh-20" style="edgeStyle=orthogonalEdgeStyle;shape=connector;curved=0;rounded=1;orthogonalLoop=1;jettySize=auto;html=1;exitX=1;exitY=0.5;exitDx=0;exitDy=0;exitPerimeter=0;entryX=0;entryY=0.5;entryDx=0;entryDy=0;entryPerimeter=0;labelBackgroundColor=default;strokeColor=default;strokeWidth=2;align=center;verticalAlign=middle;fontFamily=Helvetica;fontSize=11;fontColor=default;endArrow=classic;" edge="1" parent="1" source="NMr8HaKR2SnvibI-WVKh-3" target="NMr8HaKR2SnvibI-WVKh-14">
          <mxGeometry relative="1" as="geometry" />
        </mxCell>
        <mxCell id="NMr8HaKR2SnvibI-WVKh-21" value="miss value" style="rhombus;whiteSpace=wrap;html=1;rounded=1;fillColor=#0050ef;fontColor=#ffffff;strokeColor=#001DBC;fontStyle=1;glass=0;sketch=0;fontSize=12;points=[[0,0.5,0,0,0],[0.5,0,0,0,0],[0.5,1,0,0,0],[1,0.5,0,0,0]];shadow=1;fontFamily=Helvetica;" vertex="1" parent="1">
          <mxGeometry x="790" y="410" width="80" height="80" as="geometry" />
        </mxCell>
        <mxCell id="NMr8HaKR2SnvibI-WVKh-22" value="hit value" style="rhombus;whiteSpace=wrap;html=1;rounded=1;fillColor=#0050ef;fontColor=#ffffff;strokeColor=#001DBC;fontStyle=1;glass=0;sketch=0;fontSize=12;points=[[0,0.5,0,0,0],[0.5,0,0,0,0],[0.5,1,0,0,0],[1,0.5,0,0,0]];shadow=1;fontFamily=Helvetica;" vertex="1" parent="1">
          <mxGeometry x="790" y="322.5" width="80" height="80" as="geometry" />
        </mxCell>
        <mxCell id="NMr8HaKR2SnvibI-WVKh-23" style="edgeStyle=orthogonalEdgeStyle;shape=connector;curved=0;rounded=1;orthogonalLoop=1;jettySize=auto;html=1;exitX=1;exitY=0.5;exitDx=0;exitDy=0;exitPerimeter=0;labelBackgroundColor=default;strokeColor=default;strokeWidth=2;align=center;verticalAlign=middle;fontFamily=Helvetica;fontSize=11;fontColor=default;endArrow=classic;" edge="1" parent="1" source="NMr8HaKR2SnvibI-WVKh-17" target="NMr8HaKR2SnvibI-WVKh-22">
          <mxGeometry relative="1" as="geometry" />
        </mxCell>
        <mxCell id="NMr8HaKR2SnvibI-WVKh-24" style="edgeStyle=orthogonalEdgeStyle;shape=connector;curved=0;rounded=1;orthogonalLoop=1;jettySize=auto;html=1;exitX=1;exitY=0.5;exitDx=0;exitDy=0;exitPerimeter=0;entryX=0;entryY=0.5;entryDx=0;entryDy=0;entryPerimeter=0;labelBackgroundColor=default;strokeColor=default;strokeWidth=2;align=center;verticalAlign=middle;fontFamily=Helvetica;fontSize=11;fontColor=default;endArrow=classic;" edge="1" parent="1" source="NMr8HaKR2SnvibI-WVKh-18" target="NMr8HaKR2SnvibI-WVKh-21">
          <mxGeometry relative="1" as="geometry" />
        </mxCell>
        <mxCell id="NMr8HaKR2SnvibI-WVKh-25" style="edgeStyle=orthogonalEdgeStyle;shape=connector;curved=0;rounded=1;orthogonalLoop=1;jettySize=auto;html=1;exitX=1;exitY=0.5;exitDx=0;exitDy=0;exitPerimeter=0;entryX=0;entryY=0.5;entryDx=0;entryDy=0;entryPerimeter=0;labelBackgroundColor=default;strokeColor=default;strokeWidth=2;align=center;verticalAlign=middle;fontFamily=Helvetica;fontSize=11;fontColor=default;endArrow=classic;jumpStyle=gap;" edge="1" parent="1" source="NMr8HaKR2SnvibI-WVKh-19" target="GGTo5iLEeKvfaWeDn-yA-19">
          <mxGeometry relative="1" as="geometry">
            <Array as="points">
              <mxPoint x="710" y="443" />
              <mxPoint x="710" y="270" />
            </Array>
          </mxGeometry>
        </mxCell>
        <mxCell id="NMr8HaKR2SnvibI-WVKh-26" style="edgeStyle=orthogonalEdgeStyle;shape=connector;curved=0;rounded=1;orthogonalLoop=1;jettySize=auto;html=1;exitX=1;exitY=0.5;exitDx=0;exitDy=0;exitPerimeter=0;labelBackgroundColor=default;strokeColor=default;strokeWidth=2;align=center;verticalAlign=middle;fontFamily=Helvetica;fontSize=11;fontColor=default;endArrow=classic;jumpStyle=gap;entryX=0;entryY=0.5;entryDx=0;entryDy=0;entryPerimeter=0;" edge="1" parent="1" source="NMr8HaKR2SnvibI-WVKh-15" target="GGTo5iLEeKvfaWeDn-yA-22">
          <mxGeometry relative="1" as="geometry">
            <mxPoint x="770" y="120" as="targetPoint" />
            <Array as="points">
              <mxPoint x="730" y="473" />
              <mxPoint x="730" y="150" />
            </Array>
          </mxGeometry>
        </mxCell>
        <mxCell id="NMr8HaKR2SnvibI-WVKh-3" value="&quot;fight&quot;" style="rounded=1;whiteSpace=wrap;html=1;sketch=0;points=[[0,0.5,0,0,0],[1,0.5,0,0,0]];fillColor=#1ba1e2;fontColor=#ffffff;strokeColor=#006EAF;arcSize=50;fontFamily=Helvetica;fontSize=11;" vertex="1" parent="1">
          <mxGeometry x="414" y="375" width="66" height="25" as="geometry" />
        </mxCell>
        <mxCell id="NMr8HaKR2SnvibI-WVKh-79" style="edgeStyle=orthogonalEdgeStyle;shape=connector;curved=0;rounded=1;orthogonalLoop=1;jettySize=auto;html=1;exitX=1;exitY=0.5;exitDx=0;exitDy=0;exitPerimeter=0;entryX=0;entryY=0.5;entryDx=0;entryDy=0;entryPerimeter=0;labelBackgroundColor=default;strokeColor=default;strokeWidth=2;align=center;verticalAlign=middle;fontFamily=Helvetica;fontSize=11;fontColor=default;endArrow=classic;" edge="1" parent="1" source="GGTo5iLEeKvfaWeDn-yA-18" target="GGTo5iLEeKvfaWeDn-yA-30">
          <mxGeometry relative="1" as="geometry" />
        </mxCell>
        <mxCell id="NMr8HaKR2SnvibI-WVKh-81" style="edgeStyle=orthogonalEdgeStyle;shape=connector;curved=0;rounded=1;orthogonalLoop=1;jettySize=auto;html=1;entryX=0.512;entryY=0.01;entryDx=0;entryDy=0;entryPerimeter=0;labelBackgroundColor=default;strokeColor=default;strokeWidth=2;align=center;verticalAlign=middle;fontFamily=Helvetica;fontSize=11;fontColor=default;endArrow=classic;" edge="1" parent="1" source="GGTo5iLEeKvfaWeDn-yA-32" target="GGTo5iLEeKvfaWeDn-yA-34">
          <mxGeometry relative="1" as="geometry" />
        </mxCell>
        <mxCell id="NMr8HaKR2SnvibI-WVKh-82" style="edgeStyle=orthogonalEdgeStyle;shape=connector;curved=0;rounded=1;orthogonalLoop=1;jettySize=auto;html=1;labelBackgroundColor=default;strokeColor=default;strokeWidth=2;align=center;verticalAlign=middle;fontFamily=Helvetica;fontSize=11;fontColor=default;endArrow=classic;" edge="1" parent="1" source="GGTo5iLEeKvfaWeDn-yA-36" target="NMr8HaKR2SnvibI-WVKh-2">
          <mxGeometry relative="1" as="geometry" />
        </mxCell>
      </root>
    </mxGraphModel>
  </diagram>
  <diagram id="yksTZBDU_Kgs1hJw8WuM" name="Fight Step">
    <mxGraphModel dx="937" dy="704" grid="1" gridSize="10" guides="1" tooltips="1" connect="1" arrows="1" fold="1" page="1" pageScale="1" pageWidth="850" pageHeight="1100" math="0" shadow="0">
      <root>
        <mxCell id="0" />
        <mxCell id="1" parent="0" />
        <mxCell id="IiIyJrw2GLFoEIC3Ah_Q-1" value="" style="rhombus;whiteSpace=wrap;html=1;rounded=1;fontStyle=1;glass=0;sketch=0;fontSize=12;points=[[0,0.5,0,0,0],[0.5,0,0,0,0],[0.5,1,0,0,0],[1,0.5,0,0,0]];shadow=1;fontFamily=Helvetica;fontColor=default;" vertex="1" parent="1">
          <mxGeometry x="120" y="85" width="80" height="80" as="geometry" />
        </mxCell>
        <mxCell id="IiIyJrw2GLFoEIC3Ah_Q-2" value="win" style="rhombus;whiteSpace=wrap;html=1;rounded=1;fillColor=#0050ef;fontColor=#ffffff;strokeColor=#001DBC;fontStyle=1;glass=0;sketch=0;fontSize=12;points=[[0,0.5,0,0,0],[0.5,0,0,0,0],[0.5,1,0,0,0],[1,0.5,0,0,0]];shadow=1;fontFamily=Helvetica;" vertex="1" parent="1">
          <mxGeometry x="560" y="205" width="80" height="80" as="geometry" />
        </mxCell>
        <mxCell id="IiIyJrw2GLFoEIC3Ah_Q-3" value="die" style="rhombus;whiteSpace=wrap;html=1;rounded=1;fillColor=#0050ef;fontColor=#ffffff;strokeColor=#001DBC;fontStyle=1;glass=0;sketch=0;fontSize=12;points=[[0,0.5,0,0,0],[0.5,0,0,0,0],[0.5,1,0,0,0],[1,0.5,0,0,0]];shadow=1;fontFamily=Helvetica;" vertex="1" parent="1">
          <mxGeometry x="560" y="455" width="80" height="80" as="geometry" />
        </mxCell>
        <mxCell id="IiIyJrw2GLFoEIC3Ah_Q-4" value="rand" style="rounded=1;whiteSpace=wrap;html=1;sketch=0;container=1;recursiveResize=0;verticalAlign=middle;arcSize=6;fontStyle=0;autosize=0;points=[];absoluteArcSize=1;shadow=1;strokeColor=#d6b656;fillColor=#fff2cc;fontFamily=Helvetica;fontSize=11;" vertex="1" parent="1">
          <mxGeometry x="270" y="90" width="110" height="70" as="geometry">
            <mxRectangle x="-98" y="-1230" width="99" height="26" as="alternateBounds" />
          </mxGeometry>
        </mxCell>
        <mxCell id="IiIyJrw2GLFoEIC3Ah_Q-7" value="1" style="rounded=1;whiteSpace=wrap;html=1;sketch=0;points=[[0,0.5,0,0,0],[1,0.5,0,0,0]];fillColor=#1ba1e2;fontColor=#ffffff;strokeColor=#006EAF;arcSize=50;fontFamily=Helvetica;fontSize=11;" vertex="1" parent="IiIyJrw2GLFoEIC3Ah_Q-4">
          <mxGeometry x="66.31" y="55" width="37.38" height="25" as="geometry" />
        </mxCell>
        <mxCell id="IiIyJrw2GLFoEIC3Ah_Q-6" value="2" style="rounded=1;whiteSpace=wrap;html=1;sketch=0;points=[[0,0.5,0,0,0],[1,0.5,0,0,0]];fillColor=#1ba1e2;fontColor=#ffffff;strokeColor=#006EAF;arcSize=50;fontFamily=Helvetica;fontSize=11;" vertex="1" parent="IiIyJrw2GLFoEIC3Ah_Q-4">
          <mxGeometry x="10" y="55" width="37.38" height="25" as="geometry" />
        </mxCell>
        <mxCell id="IiIyJrw2GLFoEIC3Ah_Q-8" value="m.ok - p,pwr &amp;lt;= 0" style="rounded=1;whiteSpace=wrap;html=1;sketch=0;container=1;recursiveResize=0;verticalAlign=middle;arcSize=6;fontStyle=0;autosize=0;points=[];absoluteArcSize=1;shadow=1;strokeColor=#d6b656;fillColor=#fff2cc;fontFamily=Helvetica;fontSize=11;" vertex="1" parent="1">
          <mxGeometry x="300" y="210" width="135.38" height="70" as="geometry">
            <mxRectangle x="-98" y="-1230" width="99" height="26" as="alternateBounds" />
          </mxGeometry>
        </mxCell>
        <mxCell id="IiIyJrw2GLFoEIC3Ah_Q-10" value="no" style="rounded=1;whiteSpace=wrap;html=1;sketch=0;points=[[0,0.5,0,0,0],[1,0.5,0,0,0]];fillColor=#1ba1e2;fontColor=#ffffff;strokeColor=#006EAF;arcSize=50;fontFamily=Helvetica;fontSize=11;" vertex="1" parent="IiIyJrw2GLFoEIC3Ah_Q-8">
          <mxGeometry x="36.31" y="55" width="37.38" height="25" as="geometry" />
        </mxCell>
        <mxCell id="IiIyJrw2GLFoEIC3Ah_Q-11" value="" style="rounded=1;whiteSpace=wrap;html=1;sketch=0;points=[[0,0.5,0,0,0],[1,0.5,0,0,0]];arcSize=50;fontFamily=Helvetica;fontSize=11;fontColor=default;" vertex="1" parent="IiIyJrw2GLFoEIC3Ah_Q-8">
          <mxGeometry x="36.31" y="-10" width="37.37" height="25" as="geometry" />
        </mxCell>
        <mxCell id="IiIyJrw2GLFoEIC3Ah_Q-26" value="miss value" style="rhombus;whiteSpace=wrap;html=1;rounded=1;fillColor=#0050ef;fontColor=#ffffff;strokeColor=#001DBC;fontStyle=1;glass=0;sketch=0;fontSize=12;points=[[0,0.5,0,0,0],[0.5,0,0,0,0],[0.5,1,0,0,0],[1,0.5,0,0,0]];shadow=1;fontFamily=Helvetica;" vertex="1" parent="1">
          <mxGeometry x="560" y="580" width="80" height="80" as="geometry" />
        </mxCell>
        <mxCell id="IiIyJrw2GLFoEIC3Ah_Q-27" value="hit value" style="rhombus;whiteSpace=wrap;html=1;rounded=1;fillColor=#0050ef;fontColor=#ffffff;strokeColor=#001DBC;fontStyle=1;glass=0;sketch=0;fontSize=12;points=[[0,0.5,0,0,0],[0.5,0,0,0,0],[0.5,1,0,0,0],[1,0.5,0,0,0]];shadow=1;fontFamily=Helvetica;" vertex="1" parent="1">
          <mxGeometry x="560" y="330" width="80" height="80" as="geometry" />
        </mxCell>
        <mxCell id="IiIyJrw2GLFoEIC3Ah_Q-33" style="edgeStyle=orthogonalEdgeStyle;shape=connector;curved=0;rounded=1;orthogonalLoop=1;jettySize=auto;html=1;exitX=1;exitY=0.5;exitDx=0;exitDy=0;exitPerimeter=0;entryX=0;entryY=0.5;entryDx=0;entryDy=0;entryPerimeter=0;labelBackgroundColor=default;strokeColor=default;strokeWidth=2;align=center;verticalAlign=middle;fontFamily=Helvetica;fontSize=11;fontColor=default;endArrow=classic;" edge="1" parent="1" source="IiIyJrw2GLFoEIC3Ah_Q-1" target="IiIyJrw2GLFoEIC3Ah_Q-5">
          <mxGeometry relative="1" as="geometry" />
        </mxCell>
        <mxCell id="IiIyJrw2GLFoEIC3Ah_Q-34" style="edgeStyle=orthogonalEdgeStyle;shape=connector;curved=0;rounded=1;orthogonalLoop=1;jettySize=auto;html=1;entryX=0.512;entryY=0.01;entryDx=0;entryDy=0;entryPerimeter=0;labelBackgroundColor=default;strokeColor=default;strokeWidth=2;align=center;verticalAlign=middle;fontFamily=Helvetica;fontSize=11;fontColor=default;endArrow=classic;" edge="1" parent="1" source="IiIyJrw2GLFoEIC3Ah_Q-7" target="IiIyJrw2GLFoEIC3Ah_Q-11">
          <mxGeometry relative="1" as="geometry" />
        </mxCell>
        <mxCell id="IiIyJrw2GLFoEIC3Ah_Q-5" value="" style="rounded=1;whiteSpace=wrap;html=1;sketch=0;points=[[0,0.5,0,0,0],[1,0.5,0,0,0]];arcSize=50;fontFamily=Helvetica;fontSize=11;fontColor=default;" vertex="1" parent="1">
          <mxGeometry x="252.63" y="112.5" width="37.37" height="25" as="geometry" />
        </mxCell>
        <mxCell id="IiIyJrw2GLFoEIC3Ah_Q-36" value="p.pwr" style="rounded=1;whiteSpace=wrap;html=1;sketch=0;container=1;recursiveResize=0;verticalAlign=middle;arcSize=6;fontStyle=0;autosize=0;points=[];absoluteArcSize=1;shadow=1;strokeColor=#d6b656;fillColor=#fff2cc;fontFamily=Helvetica;fontSize=11;" vertex="1" parent="1">
          <mxGeometry x="300" y="330" width="110" height="70" as="geometry">
            <mxRectangle x="-98" y="-1230" width="99" height="26" as="alternateBounds" />
          </mxGeometry>
        </mxCell>
        <mxCell id="IiIyJrw2GLFoEIC3Ah_Q-37" value="" style="rounded=1;whiteSpace=wrap;html=1;sketch=0;points=[[0,0.5,0,0,0],[1,0.5,0,0,0]];fillColor=#1ba1e2;fontColor=#ffffff;strokeColor=#006EAF;arcSize=50;fontFamily=Helvetica;fontSize=11;" vertex="1" parent="IiIyJrw2GLFoEIC3Ah_Q-36">
          <mxGeometry x="90" y="27.5" width="37.38" height="25" as="geometry" />
        </mxCell>
        <mxCell id="IiIyJrw2GLFoEIC3Ah_Q-39" value="" style="rounded=1;whiteSpace=wrap;html=1;sketch=0;points=[[0,0.5,0,0,0],[1,0.5,0,0,0]];arcSize=50;fontFamily=Helvetica;fontSize=11;fontColor=default;" vertex="1" parent="IiIyJrw2GLFoEIC3Ah_Q-36">
          <mxGeometry x="36.31" y="-10" width="37.37" height="25" as="geometry" />
        </mxCell>
        <mxCell id="IiIyJrw2GLFoEIC3Ah_Q-9" value="yes" style="rounded=1;whiteSpace=wrap;html=1;sketch=0;points=[[0,0.5,0,0,0],[1,0.5,0,0,0]];fillColor=#1ba1e2;fontColor=#ffffff;strokeColor=#006EAF;arcSize=50;fontFamily=Helvetica;fontSize=11;" vertex="1" parent="1">
          <mxGeometry x="420" y="232.5" width="37.38" height="25" as="geometry" />
        </mxCell>
        <mxCell id="IiIyJrw2GLFoEIC3Ah_Q-40" style="edgeStyle=orthogonalEdgeStyle;shape=connector;curved=0;rounded=1;orthogonalLoop=1;jettySize=auto;html=1;entryX=0.473;entryY=0.04;entryDx=0;entryDy=0;entryPerimeter=0;labelBackgroundColor=default;strokeColor=default;strokeWidth=2;align=center;verticalAlign=middle;fontFamily=Helvetica;fontSize=11;fontColor=default;endArrow=classic;" edge="1" parent="1" source="IiIyJrw2GLFoEIC3Ah_Q-10" target="IiIyJrw2GLFoEIC3Ah_Q-39">
          <mxGeometry relative="1" as="geometry" />
        </mxCell>
        <mxCell id="IiIyJrw2GLFoEIC3Ah_Q-41" style="edgeStyle=orthogonalEdgeStyle;shape=connector;curved=0;rounded=1;orthogonalLoop=1;jettySize=auto;html=1;exitX=1;exitY=0.5;exitDx=0;exitDy=0;exitPerimeter=0;entryX=0;entryY=0.5;entryDx=0;entryDy=0;entryPerimeter=0;labelBackgroundColor=default;strokeColor=default;strokeWidth=2;align=center;verticalAlign=middle;fontFamily=Helvetica;fontSize=11;fontColor=default;endArrow=classic;" edge="1" parent="1" source="IiIyJrw2GLFoEIC3Ah_Q-9" target="IiIyJrw2GLFoEIC3Ah_Q-2">
          <mxGeometry relative="1" as="geometry" />
        </mxCell>
        <mxCell id="IiIyJrw2GLFoEIC3Ah_Q-42" style="edgeStyle=orthogonalEdgeStyle;shape=connector;curved=0;rounded=1;orthogonalLoop=1;jettySize=auto;html=1;exitX=1;exitY=0.5;exitDx=0;exitDy=0;exitPerimeter=0;labelBackgroundColor=default;strokeColor=default;strokeWidth=2;align=center;verticalAlign=middle;fontFamily=Helvetica;fontSize=11;fontColor=default;endArrow=classic;" edge="1" parent="1" source="IiIyJrw2GLFoEIC3Ah_Q-37" target="IiIyJrw2GLFoEIC3Ah_Q-27">
          <mxGeometry relative="1" as="geometry" />
        </mxCell>
        <mxCell id="IiIyJrw2GLFoEIC3Ah_Q-43" value="p.ok - m,pwr &amp;lt;= 0" style="rounded=1;whiteSpace=wrap;html=1;sketch=0;container=1;recursiveResize=0;verticalAlign=middle;arcSize=6;fontStyle=0;autosize=0;points=[];absoluteArcSize=1;shadow=1;strokeColor=#d6b656;fillColor=#fff2cc;fontFamily=Helvetica;fontSize=11;" vertex="1" parent="1">
          <mxGeometry x="200" y="460" width="135.38" height="70" as="geometry">
            <mxRectangle x="-98" y="-1230" width="99" height="26" as="alternateBounds" />
          </mxGeometry>
        </mxCell>
        <mxCell id="IiIyJrw2GLFoEIC3Ah_Q-44" value="no" style="rounded=1;whiteSpace=wrap;html=1;sketch=0;points=[[0,0.5,0,0,0],[1,0.5,0,0,0]];fillColor=#1ba1e2;fontColor=#ffffff;strokeColor=#006EAF;arcSize=50;fontFamily=Helvetica;fontSize=11;" vertex="1" parent="IiIyJrw2GLFoEIC3Ah_Q-43">
          <mxGeometry x="36.31" y="55" width="37.38" height="25" as="geometry" />
        </mxCell>
        <mxCell id="IiIyJrw2GLFoEIC3Ah_Q-45" value="" style="rounded=1;whiteSpace=wrap;html=1;sketch=0;points=[[0,0.5,0,0,0],[1,0.5,0,0,0]];arcSize=50;fontFamily=Helvetica;fontSize=11;fontColor=default;" vertex="1" parent="IiIyJrw2GLFoEIC3Ah_Q-43">
          <mxGeometry x="42.629999999999995" y="-10" width="37.37" height="25" as="geometry" />
        </mxCell>
        <mxCell id="IiIyJrw2GLFoEIC3Ah_Q-46" value="m.pwr" style="rounded=1;whiteSpace=wrap;html=1;sketch=0;container=1;recursiveResize=0;verticalAlign=middle;arcSize=6;fontStyle=0;autosize=0;points=[];absoluteArcSize=1;shadow=1;strokeColor=#d6b656;fillColor=#fff2cc;fontFamily=Helvetica;fontSize=11;" vertex="1" parent="1">
          <mxGeometry x="200" y="580" width="110" height="70" as="geometry">
            <mxRectangle x="-98" y="-1230" width="99" height="26" as="alternateBounds" />
          </mxGeometry>
        </mxCell>
        <mxCell id="IiIyJrw2GLFoEIC3Ah_Q-47" value="" style="rounded=1;whiteSpace=wrap;html=1;sketch=0;points=[[0,0.5,0,0,0],[1,0.5,0,0,0]];fillColor=#1ba1e2;fontColor=#ffffff;strokeColor=#006EAF;arcSize=50;fontFamily=Helvetica;fontSize=11;" vertex="1" parent="IiIyJrw2GLFoEIC3Ah_Q-46">
          <mxGeometry x="90" y="27.5" width="37.38" height="25" as="geometry" />
        </mxCell>
        <mxCell id="IiIyJrw2GLFoEIC3Ah_Q-48" value="" style="rounded=1;whiteSpace=wrap;html=1;sketch=0;points=[[0,0.5,0,0,0],[1,0.5,0,0,0]];arcSize=50;fontFamily=Helvetica;fontSize=11;fontColor=default;" vertex="1" parent="IiIyJrw2GLFoEIC3Ah_Q-46">
          <mxGeometry x="36.31" y="-10" width="37.37" height="25" as="geometry" />
        </mxCell>
        <mxCell id="IiIyJrw2GLFoEIC3Ah_Q-49" value="yes" style="rounded=1;whiteSpace=wrap;html=1;sketch=0;points=[[0,0.5,0,0,0],[1,0.5,0,0,0]];fillColor=#1ba1e2;fontColor=#ffffff;strokeColor=#006EAF;arcSize=50;fontFamily=Helvetica;fontSize=11;" vertex="1" parent="1">
          <mxGeometry x="320" y="482.5" width="37.38" height="25" as="geometry" />
        </mxCell>
        <mxCell id="IiIyJrw2GLFoEIC3Ah_Q-50" style="edgeStyle=orthogonalEdgeStyle;shape=connector;curved=0;rounded=1;orthogonalLoop=1;jettySize=auto;html=1;entryX=0.473;entryY=0.04;entryDx=0;entryDy=0;entryPerimeter=0;labelBackgroundColor=default;strokeColor=default;strokeWidth=2;align=center;verticalAlign=middle;fontFamily=Helvetica;fontSize=11;fontColor=default;endArrow=classic;" edge="1" parent="1" source="IiIyJrw2GLFoEIC3Ah_Q-44" target="IiIyJrw2GLFoEIC3Ah_Q-48">
          <mxGeometry relative="1" as="geometry" />
        </mxCell>
        <mxCell id="IiIyJrw2GLFoEIC3Ah_Q-51" style="edgeStyle=orthogonalEdgeStyle;shape=connector;curved=0;rounded=1;orthogonalLoop=1;jettySize=auto;html=1;labelBackgroundColor=default;strokeColor=default;strokeWidth=2;align=center;verticalAlign=middle;fontFamily=Helvetica;fontSize=11;fontColor=default;endArrow=classic;exitX=0.455;exitY=1.08;exitDx=0;exitDy=0;exitPerimeter=0;entryX=0.455;entryY=0.04;entryDx=0;entryDy=0;entryPerimeter=0;" edge="1" parent="1" source="IiIyJrw2GLFoEIC3Ah_Q-6" target="IiIyJrw2GLFoEIC3Ah_Q-45">
          <mxGeometry relative="1" as="geometry">
            <mxPoint x="280" y="450" as="targetPoint" />
            <Array as="points">
              <mxPoint x="297" y="190" />
              <mxPoint x="260" y="190" />
            </Array>
          </mxGeometry>
        </mxCell>
        <mxCell id="IiIyJrw2GLFoEIC3Ah_Q-52" style="edgeStyle=orthogonalEdgeStyle;shape=connector;curved=0;rounded=1;orthogonalLoop=1;jettySize=auto;html=1;exitX=1;exitY=0.5;exitDx=0;exitDy=0;exitPerimeter=0;entryX=0;entryY=0.5;entryDx=0;entryDy=0;entryPerimeter=0;labelBackgroundColor=default;strokeColor=default;strokeWidth=2;align=center;verticalAlign=middle;fontFamily=Helvetica;fontSize=11;fontColor=default;endArrow=classic;" edge="1" parent="1" source="IiIyJrw2GLFoEIC3Ah_Q-49" target="IiIyJrw2GLFoEIC3Ah_Q-3">
          <mxGeometry relative="1" as="geometry" />
        </mxCell>
        <mxCell id="IiIyJrw2GLFoEIC3Ah_Q-53" style="edgeStyle=orthogonalEdgeStyle;shape=connector;curved=0;rounded=1;orthogonalLoop=1;jettySize=auto;html=1;exitX=1;exitY=0.5;exitDx=0;exitDy=0;exitPerimeter=0;labelBackgroundColor=default;strokeColor=default;strokeWidth=2;align=center;verticalAlign=middle;fontFamily=Helvetica;fontSize=11;fontColor=default;endArrow=classic;" edge="1" parent="1" source="IiIyJrw2GLFoEIC3Ah_Q-47" target="IiIyJrw2GLFoEIC3Ah_Q-26">
          <mxGeometry relative="1" as="geometry" />
        </mxCell>
      </root>
    </mxGraphModel>
  </diagram>
</mxfile>
